  0
SECTION
  2
HEADER
  9
$ACADVER
  1
AC1014
  9
$ACADMAINTVER
 70
     9
  9
$DWGCODEPAGE
  3
ANSI_1252
  9
$INSBASE
 10
0.0
 20
0.0
 30
0.0
  9
$EXTMIN
 10
1.000000000000000E+20
 20
1.000000000000000E+20
 30
1.000000000000000E+20
  9
$EXTMAX
 10
-1.000000000000000E+20
 20
-1.000000000000000E+20
 30
-1.000000000000000E+20
  9
$LIMMIN
 10
0.0
 20
0.0
  9
$LIMMAX
 10
12.0
 20
9.0
  9
$ORTHOMODE
 70
     0
  9
$REGENMODE
 70
     1
  9
$FILLMODE
 70
     1
  9
$QTEXTMODE
 70
     0
  9
$MIRRTEXT
 70
     1
  9
$DRAGMODE
 70
     2
  9
$LTSCALE
 40
1.0
  9
$OSMODE
 70
    37
  9
$ATTMODE
 70
     1
  9
$TEXTSIZE
 40
0.2
  9
$TRACEWID
 40
0.05
  9
$TEXTSTYLE
  7
STANDARD
  9
$CLAYER
  8
0
  9
$CELTYPE
  6
BYLAYER
  9
$CECOLOR
 62
   256
  9
$CELTSCALE
 40
1.0
  9
$DELOBJ
 70
     1
  9
$DISPSILH
 70
     0
  9
$DIMSCALE
 40
1.0
  9
$DIMASZ
 40
0.18
  9
$DIMEXO
 40
0.0625
  9
$DIMDLI
 40
0.38
  9
$DIMRND
 40
0.0
  9
$DIMDLE
 40
0.0
  9
$DIMEXE
 40
0.18
  9
$DIMTP
 40
0.0
  9
$DIMTM
 40
0.0
  9
$DIMTXT
 40
0.18
  9
$DIMCEN
 40
0.09
  9
$DIMTSZ
 40
0.0
  9
$DIMTOL
 70
     0
  9
$DIMLIM
 70
     0
  9
$DIMTIH
 70
     1
  9
$DIMTOH
 70
     1
  9
$DIMSE1
 70
     0
  9
$DIMSE2
 70
     0
  9
$DIMTAD
 70
     0
  9
$DIMZIN
 70
     0
  9
$DIMBLK
  1

  9
$DIMASO
 70
     1
  9
$DIMSHO
 70
     1
  9
$DIMPOST
  1

  9
$DIMAPOST
  1

  9
$DIMALT
 70
     0
  9
$DIMALTD
 70
     2
  9
$DIMALTF
 40
25.4
  9
$DIMLFAC
 40
1.0
  9
$DIMTOFL
 70
     0
  9
$DIMTVP
 40
0.0
  9
$DIMTIX
 70
     0
  9
$DIMSOXD
 70
     0
  9
$DIMSAH
 70
     0
  9
$DIMBLK1
  1

  9
$DIMBLK2
  1

  9
$DIMSTYLE
  2
STANDARD
  9
$DIMCLRD
 70
     0
  9
$DIMCLRE
 70
     0
  9
$DIMCLRT
 70
     0
  9
$DIMTFAC
 40
1.0
  9
$DIMGAP
 40
0.09
  9
$DIMJUST
 70
     0
  9
$DIMSD1
 70
     0
  9
$DIMSD2
 70
     0
  9
$DIMTOLJ
 70
     1
  9
$DIMTZIN
 70
     0
  9
$DIMALTZ
 70
     0
  9
$DIMALTTZ
 70
     0
  9
$DIMFIT
 70
     3
  9
$DIMUPT
 70
     0
  9
$DIMUNIT
 70
     2
  9
$DIMDEC
 70
     4
  9
$DIMTDEC
 70
     4
  9
$DIMALTU
 70
     2
  9
$DIMALTTD
 70
     2
  9
$DIMTXSTY
  7
STANDARD
  9
$DIMAUNIT
 70
     0
  9
$LUNITS
 70
     2
  9
$LUPREC
 70
     4
  9
$SKETCHINC
 40
0.1
  9
$FILLETRAD
 40
0.5
  9
$AUNITS
 70
     0
  9
$AUPREC
 70
     0
  9
$MENU
  1
.
  9
$ELEVATION
 40
0.0
  9
$PELEVATION
 40
0.0
  9
$THICKNESS
 40
0.0
  9
$LIMCHECK
 70
     0
  9
$CHAMFERA
 40
0.0
  9
$CHAMFERB
 40
0.0
  9
$CHAMFERC
 40
0.0
  9
$CHAMFERD
 40
0.0
  9
$SKPOLY
 70
     0
  9
$TDCREATE
 40
2459212.745655151
  9
$TDUPDATE
 40
2459212.745655197
  9
$TDINDWG
 40
0.0000000116
  9
$TDUSRTIMER
 40
0.0000000116
  9
$USRTIMER
 70
     1
  9
$ANGBASE
 50
0.0
  9
$ANGDIR
 70
     0
  9
$PDMODE
 70
     0
  9
$PDSIZE
 40
0.0
  9
$PLINEWID
 40
0.0
  9
$COORDS
 70
     1
  9
$SPLFRAME
 70
     0
  9
$SPLINETYPE
 70
     6
  9
$SPLINESEGS
 70
     8
  9
$ATTDIA
 70
     0
  9
$ATTREQ
 70
     1
  9
$HANDLING
 70
     1
  9
$HANDSEED
  5
263
  9
$SURFTAB1
 70
     6
  9
$SURFTAB2
 70
     6
  9
$SURFTYPE
 70
     6
  9
$SURFU
 70
     6
  9
$SURFV
 70
     6
  9
$UCSNAME
  2

  9
$UCSORG
 10
0.0
 20
0.0
 30
0.0
  9
$UCSXDIR
 10
1.0
 20
0.0
 30
0.0
  9
$UCSYDIR
 10
0.0
 20
1.0
 30
0.0
  9
$PUCSNAME
  2

  9
$PUCSORG
 10
0.0
 20
0.0
 30
0.0
  9
$PUCSXDIR
 10
1.0
 20
0.0
 30
0.0
  9
$PUCSYDIR
 10
0.0
 20
1.0
 30
0.0
  9
$USERI1
 70
     0
  9
$USERI2
 70
     0
  9
$USERI3
 70
     0
  9
$USERI4
 70
     0
  9
$USERI5
 70
     0
  9
$USERR1
 40
0.0
  9
$USERR2
 40
0.0
  9
$USERR3
 40
0.0
  9
$USERR4
 40
0.0
  9
$USERR5
 40
0.0
  9
$WORLDVIEW
 70
     1
  9
$SHADEDGE
 70
     3
  9
$SHADEDIF
 70
    70
  9
$TILEMODE
 70
     1
  9
$MAXACTVP
 70
    64
  9
$PINSBASE
 10
0.0
 20
0.0
 30
0.0
  9
$PLIMCHECK
 70
     0
  9
$PEXTMIN
 10
1.000000000000000E+20
 20
1.000000000000000E+20
 30
1.000000000000000E+20
  9
$PEXTMAX
 10
-1.000000000000000E+20
 20
-1.000000000000000E+20
 30
-1.000000000000000E+20
  9
$PLIMMIN
 10
0.0
 20
0.0
  9
$PLIMMAX
 10
12.0
 20
9.0
  9
$UNITMODE
 70
     0
  9
$VISRETAIN
 70
     1
  9
$PLINEGEN
 70
     0
  9
$PSLTSCALE
 70
     1
  9
$TREEDEPTH
 70
  3020
  9
$PICKSTYLE
 70
     1
  9
$CMLSTYLE
  2
STANDARD
  9
$CMLJUST
 70
     0
  9
$CMLSCALE
 40
1.0
  9
$PROXYGRAPHICS
 70
     1
  9
$MEASUREMENT
 70
     1
  0
ENDSEC
  0
SECTION
  2
CLASSES
  0
CLASS
  1
ACDBDICTIONARYWDFLT
  2
AcDbDictionaryWithDefault
  3
ObjectDBX Classes
 90
        0
280
     0
281
     0
  0
CLASS
  1
VISUALSTYLE
  2
AcDbVisualStyle
  3
ObjectDBX Classes
 90
     4095
280
     0
281
     0
  0
CLASS
  1
MATERIAL
  2
AcDbMaterial
  3
ObjectDBX Classes
 90
     1153
280
     0
281
     0
  0
CLASS
  1
SCALE
  2
AcDbScale
  3
ObjectDBX Classes
 90
     1153
280
     0
281
     0
  0
CLASS
  1
TABLESTYLE
  2
AcDbTableStyle
  3
ObjectDBX Classes
 90
     4095
280
     0
281
     0
  0
CLASS
  1
MLEADERSTYLE
  2
AcDbMLeaderStyle
  3
ACDB_MLEADERSTYLE_CLASS
 90
     4095
280
     0
281
     0
  0
CLASS
  1
SUN
  2
AcDbSun
  3
SCENEOE
 90
     1153
280
     0
281
     0
  0
CLASS
  1
DICTIONARYVAR
  2
AcDbDictionaryVar
  3
ObjectDBX Classes
 90
        0
280
     0
281
     0
  0
CLASS
  1
XRECORD
  2
AcDbXrecord
  3
ObjectDBX Classes
 90
        0
280
     0
281
     0
  0
CLASS
  1
LWPOLYLINE
  2
AcDbPolyline
  3
ObjectDBX Classes
 90
        0
280
     0
281
     1
  0
CLASS
  1
HATCH
  2
AcDbHatch
  3
ObjectDBX Classes
 90
        0
280
     0
281
     1
  0
CLASS
  1
ACDBPLACEHOLDER
  2
AcDbPlaceHolder
  3
ObjectDBX Classes
 90
        0
280
     0
281
     0
  0
CLASS
  1
LAYOUT
  2
AcDbLayout
  3
ObjectDBX Classes
 90
        0
280
     0
281
     0
  0
ENDSEC
  0
SECTION
  2
TABLES
  0
TABLE
  2
VPORT
  5
8
102
{ACAD_XDICTIONARY
360
258
102
}
330
0
100
AcDbSymbolTable
 70
     1
  0
VPORT
  5
29
330
8
100
AcDbSymbolTableRecord
100
AcDbViewportTableRecord
  2
*ACTIVE
 70
     0
 10
0.0
 20
0.0
 11
1.0
 21
1.0
 12
0.0
 22
0.0
 13
0.0
 23
0.0
 14
0.5
 24
0.5
 15
0.5
 25
0.5
 16
0.0
 26
0.0
 36
1.0
 17
0.0
 27
0.0
 37
-1000.0
 40
239.0236551724139
 41
1.205320033250208
 42
50.0
 43
379.0430911933423
 44
500.5584415440541
 50
0.0
 51
0.0
 71
     0
 72
   100
 73
     1
 74
     3
 75
     0
 76
     0
 77
     0
 78
     0
  0
ENDTAB
  0
TABLE
  2
LTYPE
  5
5
330
0
100
AcDbSymbolTable
 70
     1
  0
LTYPE
  5
14
330
5
100
AcDbSymbolTableRecord
100
AcDbLinetypeTableRecord
  2
BYBLOCK
 70
     0
  3

 72
    65
 73
     0
 40
0.0
  0
LTYPE
  5
15
330
5
100
AcDbSymbolTableRecord
100
AcDbLinetypeTableRecord
  2
BYLAYER
 70
     0
  3

 72
    65
 73
     0
 40
0.0
  0
LTYPE
  5
16
330
5
100
AcDbSymbolTableRecord
100
AcDbLinetypeTableRecord
  2
CONTINUOUS
 70
     0
  3
Solid line
 72
    65
 73
     0
 40
0.0
  0
ENDTAB
  0
TABLE
  2
LAYER
  5
2
330
0
100
AcDbSymbolTable
 70
     3
  0
LAYER
  5
10
330
2
100
AcDbSymbolTableRecord
100
AcDbLayerTableRecord
  2
0
 70
     0
 62
     7
  6
CONTINUOUS
  0
LAYER
  5
6E
330
2
100
AcDbSymbolTableRecord
100
AcDbLayerTableRecord
  2
PROFILEEDGES
 70
     0
 62
     7
  6
CONTINUOUS
  0
LAYER
  5
6F
330
2
100
AcDbSymbolTableRecord
100
AcDbLayerTableRecord
  2
SECTIONCUTEDGES
 70
     0
 62
     7
  6
CONTINUOUS
  0
ENDTAB
  0
TABLE
  2
STYLE
  5
3
330
0
100
AcDbSymbolTable
 70
     1
  0
STYLE
  5
11
330
3
100
AcDbSymbolTableRecord
100
AcDbTextStyleTableRecord
  2
STANDARD
 70
     0
 40
0.0
 41
1.0
 50
0.0
 71
     0
 42
0.2
  3
txt
  4

  0
ENDTAB
  0
TABLE
  2
VIEW
  5
6
330
0
100
AcDbSymbolTable
 70
     0
  0
ENDTAB
  0
TABLE
  2
UCS
  5
7
330
0
100
AcDbSymbolTable
 70
     0
  0
ENDTAB
  0
TABLE
  2
APPID
  5
9
330
0
100
AcDbSymbolTable
 70
     2
  0
APPID
  5
12
330
9
100
AcDbSymbolTableRecord
100
AcDbRegAppTableRecord
  2
ACAD
 70
     0
  0
APPID
  5
262
330
9
100
AcDbSymbolTableRecord
100
AcDbRegAppTableRecord
  2
ACAD_MLEADERVER
 70
     0
  0
ENDTAB
  0
TABLE
  2
DIMSTYLE
  5
A
330
0
100
AcDbSymbolTable
 70
     1
  0
DIMSTYLE
105
27
330
A
100
AcDbSymbolTableRecord
100
AcDbDimStyleTableRecord
  2
STANDARD
 70
     0
  3

  4

  5

  6

  7

 40
1.0
 41
0.18
 42
0.0625
 43
0.38
 44
0.18
 45
0.0
 46
0.0
 47
0.0
 48
0.0
140
0.18
141
0.09
142
0.0
143
25.4
144
1.0
145
0.0
146
1.0
147
0.09
 71
     0
 72
     0
 73
     1
 74
     1
 75
     0
 76
     0
 77
     0
 78
     0
170
     0
171
     2
172
     0
173
     0
174
     0
175
     0
176
     0
177
     0
178
     0
270
     2
271
     4
272
     4
273
     2
274
     2
340
11
275
     0
280
     0
281
     0
282
     0
283
     1
284
     0
285
     0
286
     0
287
     3
288
     0
  0
ENDTAB
  0
TABLE
  2
BLOCK_RECORD
  5
1
330
0
100
AcDbSymbolTable
 70
     0
  0
BLOCK_RECORD
  5
1F
330
1
100
AcDbSymbolTableRecord
100
AcDbBlockTableRecord
  2
*MODEL_SPACE
  0
BLOCK_RECORD
  5
1B
330
1
100
AcDbSymbolTableRecord
100
AcDbBlockTableRecord
  2
*PAPER_SPACE
  0
ENDTAB
  0
ENDSEC
  0
SECTION
  2
BLOCKS
  0
BLOCK
  5
20
330
1F
100
AcDbEntity
  8
0
100
AcDbBlockBegin
  2
*MODEL_SPACE
 70
     0
 10
0.0
 20
0.0
 30
0.0
  3
*MODEL_SPACE
  1

  0
ENDBLK
  5
21
330
1F
100
AcDbEntity
  8
0
100
AcDbBlockEnd
  0
BLOCK
  5
1C
330
1B
100
AcDbEntity
 67
     1
  8
0
100
AcDbBlockBegin
  2
*PAPER_SPACE
 70
     0
 10
0.0
 20
0.0
 30
0.0
  3
*PAPER_SPACE
  1

  0
ENDBLK
  5
1D
330
1B
100
AcDbEntity
 67
     1
  8
0
100
AcDbBlockEnd
  0
ENDSEC
  0
SECTION
  2
ENTITIES
  0
LINE
  5
70
330
1F
100
AcDbEntity
  8
0
100
AcDbLine
 10
-18.31411432497261
 20
-8.643390855429113
 30
0.0
 11
-18.36081271118799
 21
-8.998418244546688
 31
0.0
  0
LINE
  5
71
330
1F
100
AcDbEntity
  8
0
100
AcDbLine
 10
-18.36081271118799
 20
-8.998418244546688
 30
0.0
 11
-18.49781463165605
 21
-9.32924954042194
 31
0.0
  0
LINE
  5
72
330
1F
100
AcDbEntity
  8
0
100
AcDbLine
 10
-18.49781463165605
 20
-9.32924954042194
 30
0.0
 11
-18.71578315775909
 21
-9.613339611031424
 31
0.0
  0
LINE
  5
73
330
1F
100
AcDbEntity
  8
0
100
AcDbLine
 10
-18.71578315775909
 20
-9.613339611031424
 30
0.0
 11
-18.9998639210472
 21
-9.831328835119184
 31
0.0
  0
LINE
  5
74
330
1F
100
AcDbEntity
  8
0
100
AcDbLine
 10
-18.9998639210472
 20
-9.831328835119184
 30
0.0
 11
-19.33069746041416
 21
-9.968362254876343
 31
0.0
  0
LINE
  5
75
330
1F
100
AcDbEntity
  8
0
100
AcDbLine
 10
-19.33069746041416
 20
-9.968362254876343
 30
0.0
 11
-19.68573849090252
 21
-10.01510174325489
 31
0.0
  0
LINE
  5
76
330
1F
100
AcDbEntity
  8
0
100
AcDbLine
 10
-28.8271030093958
 20
-29.90199629887739
 30
0.0
 11
-28.87376884292327
 21
-30.25691969195607
 31
0.0
  0
LINE
  5
77
330
1F
100
AcDbEntity
  8
0
100
AcDbLine
 10
-28.87376884292327
 20
-30.25691969195607
 30
0.0
 11
-29.01072673616475
 21
-30.58765407963747
 31
0.0
  0
LINE
  5
78
330
1F
100
AcDbEntity
  8
0
100
AcDbLine
 10
-29.01072673616475
 20
-30.58765407963747
 30
0.0
 11
-29.22864276098984
 21
-30.87166093382314
 31
0.0
  0
LINE
  5
79
330
1F
100
AcDbEntity
  8
0
100
AcDbLine
 10
-29.22864276098984
 20
-30.87166093382314
 30
0.0
 11
-29.51266612682794
 21
-31.08958630403439
 31
0.0
  0
LINE
  5
7A
330
1F
100
AcDbEntity
  8
0
100
AcDbLine
 10
-29.51266612682794
 20
-31.08958630403439
 30
0.0
 11
-29.84344128401647
 21
-31.22657958371399
 31
0.0
  0
LINE
  5
7B
330
1F
100
AcDbEntity
  8
0
100
AcDbLine
 10
-29.84344128401647
 20
-31.22657958371399
 30
0.0
 11
-30.19842692607378
 21
-31.27330538108561
 31
0.0
  0
LINE
  5
7C
330
1F
100
AcDbEntity
  8
0
100
AcDbLine
 10
-39.3418292872475
 20
-33.38735610669519
 30
0.0
 11
-39.388468283677
 21
-33.74226245102081
 31
0.0
  0
LINE
  5
7D
330
1F
100
AcDbEntity
  8
0
100
AcDbLine
 10
-39.388468283677
 20
-33.74226245102081
 30
0.0
 11
-39.52539892385244
 21
-34.07298095190611
 31
0.0
  0
LINE
  5
7E
330
1F
100
AcDbEntity
  8
0
100
AcDbLine
 10
-39.52539892385244
 20
-34.07298095190611
 30
0.0
 11
-39.74328913688326
 21
-34.35697416387738
 31
0.0
  0
LINE
  5
7F
330
1F
100
AcDbEntity
  8
0
100
AcDbLine
 10
-39.74328913688326
 20
-34.35697416387738
 30
0.0
 11
-40.02728989119139
 21
-34.57488906610365
 31
0.0
  0
LINE
  5
80
330
1F
100
AcDbEntity
  8
0
100
AcDbLine
 10
-40.02728989119139
 20
-34.57488906610365
 30
0.0
 11
-40.35804717799748
 21
-34.71187576535693
 31
0.0
  0
LINE
  5
81
330
1F
100
AcDbEntity
  8
0
100
AcDbLine
 10
-40.35804717799748
 20
-34.71187576535693
 30
0.0
 11
-40.71302090859979
 21
-34.75859931827193
 31
0.0
  0
LINE
  5
82
330
1F
100
AcDbEntity
  8
0
100
AcDbLine
 10
23.06882733414704
 20
-8.643390855429113
 30
0.0
 11
23.11551408958681
 21
-8.998418244546688
 31
0.0
  0
LINE
  5
83
330
1F
100
AcDbEntity
  8
0
100
AcDbLine
 10
23.11551408958681
 20
-8.998418244546688
 30
0.0
 11
23.2525051719486
 21
-9.32924954042194
 31
0.0
  0
LINE
  5
84
330
1F
100
AcDbEntity
  8
0
100
AcDbLine
 10
23.2525051719486
 20
-9.32924954042194
 30
0.0
 11
23.47046439119823
 21
-9.613339611031424
 31
0.0
  0
LINE
  5
85
330
1F
100
AcDbEntity
  8
0
100
AcDbLine
 10
23.47046439119823
 20
-9.613339611031424
 30
0.0
 11
23.75453801311125
 21
-9.831328835119184
 31
0.0
  0
LINE
  5
86
330
1F
100
AcDbEntity
  8
0
100
AcDbLine
 10
23.75453801311125
 20
-9.831328835119184
 30
0.0
 11
24.08536706323314
 21
-9.968362254876343
 31
0.0
  0
LINE
  5
87
330
1F
100
AcDbEntity
  8
0
100
AcDbLine
 10
24.08536706323314
 20
-9.968362254876343
 30
0.0
 11
24.44040656252555
 21
-10.01510174325489
 31
0.0
  0
LINE
  5
88
330
1F
100
AcDbEntity
  8
0
100
AcDbLine
 10
33.58111958196429
 20
-29.90199629887739
 30
0.0
 11
33.62777378812307
 21
-30.25691969195607
 31
0.0
  0
LINE
  5
89
330
1F
100
AcDbEntity
  8
0
100
AcDbLine
 10
33.62777378812307
 20
-30.25691969195607
 30
0.0
 11
33.76472084643302
 21
-30.58765407963747
 31
0.0
  0
LINE
  5
8A
330
1F
100
AcDbEntity
  8
0
100
AcDbLine
 10
33.76472084643302
 20
-30.58765407963747
 30
0.0
 11
33.98262756713089
 21
-30.87166093382314
 31
0.0
  0
LINE
  5
8B
330
1F
100
AcDbEntity
  8
0
100
AcDbLine
 10
33.98262756713089
 20
-30.87166093382314
 30
0.0
 11
34.26664379368577
 21
-31.08958630403439
 31
0.0
  0
LINE
  5
8C
330
1F
100
AcDbEntity
  8
0
100
AcDbLine
 10
34.26664379368577
 20
-31.08958630403439
 30
0.0
 11
34.59741446294422
 21
-31.22657958371399
 31
0.0
  0
LINE
  5
8D
330
1F
100
AcDbEntity
  8
0
100
AcDbLine
 10
34.59741446294422
 20
-31.22657958371399
 30
0.0
 11
34.9523985742541
 21
-31.27330538108561
 31
0.0
  0
LINE
  5
8E
330
1F
100
AcDbEntity
  8
0
100
AcDbLine
 10
44.09573167865948
 20
-33.38735610669519
 30
0.0
 11
44.14235904827882
 21
-33.74226245102081
 31
0.0
  0
LINE
  5
8F
330
1F
100
AcDbEntity
  8
0
100
AcDbLine
 10
44.14235904827882
 20
-33.74226245102081
 30
0.0
 11
44.27927885404317
 21
-34.07298095190611
 31
0.0
  0
LINE
  5
90
330
1F
100
AcDbEntity
  8
0
100
AcDbLine
 10
44.27927885404317
 20
-34.07298095190611
 30
0.0
 11
44.4971597633937
 21
-34.35697416387738
 31
0.0
  0
LINE
  5
91
330
1F
100
AcDbEntity
  8
0
100
AcDbLine
 10
44.4971597633937
 20
-34.35697416387738
 30
0.0
 11
44.78115337876154
 21
-34.57488906610365
 31
0.0
  0
LINE
  5
92
330
1F
100
AcDbEntity
  8
0
100
AcDbLine
 10
44.78115337876154
 20
-34.57488906610365
 30
0.0
 11
45.11190617785313
 21
-34.71187576535693
 31
0.0
  0
LINE
  5
93
330
1F
100
AcDbEntity
  8
0
100
AcDbLine
 10
45.11190617785313
 20
-34.71187576535693
 30
0.0
 11
45.46687837778154
 21
-34.75859931827193
 31
0.0
  0
LINE
  5
94
330
1F
100
AcDbEntity
  8
0
100
AcDbLine
 10
48.07259749898653
 20
-104.4864171344362
 30
0.0
 11
47.99454790371536
 21
-105.0773472552117
 31
0.0
  0
LINE
  5
95
330
1F
100
AcDbEntity
  8
0
100
AcDbLine
 10
47.99454790371536
 20
-105.0773472552117
 30
0.0
 11
47.76611095005848
 21
-105.6280021306982
 31
0.0
  0
LINE
  5
96
330
1F
100
AcDbEntity
  8
0
100
AcDbLine
 10
47.76611095005848
 20
-105.6280021306982
 30
0.0
 11
47.40285555361188
 21
-106.1008568553828
 31
0.0
  0
LINE
  5
97
330
1F
100
AcDbEntity
  8
0
100
AcDbLine
 10
47.40285555361188
 20
-106.1008568553828
 30
0.0
 11
46.92953745010665
 21
-106.4636889564573
 31
0.0
  0
LINE
  5
98
330
1F
100
AcDbEntity
  8
0
100
AcDbLine
 10
46.92953745010665
 20
-106.4636889564573
 30
0.0
 11
46.37841200412364
 21
-106.6917738210613
 31
0.0
  0
LINE
  5
99
330
1F
100
AcDbEntity
  8
0
100
AcDbLine
 10
46.37841200412364
 20
-106.6917738210613
 30
0.0
 11
45.78703618845434
 21
-106.769569156778
 31
0.0
  0
LINE
  5
9A
330
1F
100
AcDbEntity
  8
0
100
AcDbLine
 10
-43.32102432850483
 20
-104.4864171344363
 30
0.0
 11
-43.24299409223484
 21
-105.0773472552117
 31
0.0
  0
LINE
  5
9B
330
1F
100
AcDbEntity
  8
0
100
AcDbLine
 10
-43.24299409223484
 20
-105.0773472552117
 30
0.0
 11
-43.01457517815319
 21
-105.6280021306982
 31
0.0
  0
LINE
  5
9C
330
1F
100
AcDbEntity
  8
0
100
AcDbLine
 10
-43.01457517815319
 20
-105.6280021306982
 30
0.0
 11
-42.65133527253175
 21
-106.1008568553828
 31
0.0
  0
LINE
  5
9D
330
1F
100
AcDbEntity
  8
0
100
AcDbLine
 10
-42.65133527253175
 20
-106.1008568553828
 30
0.0
 11
-42.17802905548622
 21
-106.4636889564573
 31
0.0
  0
LINE
  5
9E
330
1F
100
AcDbEntity
  8
0
100
AcDbLine
 10
-42.17802905548622
 20
-106.4636889564573
 30
0.0
 11
-41.62691108161371
 21
-106.6917738210613
 31
0.0
  0
LINE
  5
9F
330
1F
100
AcDbEntity
  8
0
100
AcDbLine
 10
-41.62691108161371
 20
-106.6917738210613
 30
0.0
 11
-41.03553781453678
 21
-106.769569156778
 31
0.0
  0
LINE
  5
A0
330
1F
100
AcDbEntity
  8
0
100
AcDbLine
 10
31.60986757246362
 20
-33.92308868003083
 30
0.0
 11
31.52998083568827
 21
-33.73016933916202
 31
0.0
  0
LINE
  5
A1
330
1F
100
AcDbEntity
  8
0
100
AcDbLine
 10
31.04635848300588
 20
-23.47495158406249
 30
0.0
 11
31.23935442224788
 21
-23.39503033132175
 31
0.0
  0
LINE
  5
A2
330
1F
100
AcDbEntity
  8
0
100
AcDbLine
 10
30.14419415884257
 20
-33.73016933916202
 30
0.0
 11
30.06422542908125
 21
-33.92308868003083
 31
0.0
  0
LINE
  5
A3
330
1F
100
AcDbEntity
  8
0
100
AcDbLine
 10
30.06650727641535
 20
-22.90925779093604
 30
0.0
 11
30.14640191606558
 21
-23.10220590466932
 31
0.0
  0
LINE
  5
A4
330
1F
100
AcDbEntity
  8
0
100
AcDbLine
 10
30.27352496135983
 20
-23.26789379671067
 30
0.0
 11
30.43921312776075
 21
-23.39503033132175
 31
0.0
  0
LINE
  5
A5
330
1F
100
AcDbEntity
  8
0
100
AcDbLine
 10
31.63957612032956
 20
-22.70219838933338
 30
0.0
 11
31.61235694091015
 21
-22.49513839686917
 31
0.0
  0
LINE
  5
A6
330
1F
100
AcDbEntity
  8
0
100
AcDbLine
 10
31.61235694091015
 20
-22.49513839686917
 30
0.0
 11
31.53246391612476
 21
-22.30218866887213
 31
0.0
  0
LINE
  5
A7
330
1F
100
AcDbEntity
  8
0
100
AcDbLine
 10
31.04424428590944
 20
-33.35747633902161
 30
0.0
 11
30.83717248876173
 21
-33.33022041047687
 31
0.0
  0
LINE
  5
A8
330
1F
100
AcDbEntity
  8
0
100
AcDbLine
 10
30.27495310151704
 20
-16.42182016982897
 30
0.0
 11
30.14775521744158
 21
-16.5875233163653
 31
0.0
  0
LINE
  5
A9
330
1F
100
AcDbEntity
  8
0
100
AcDbLine
 10
30.06422542908125
 20
-33.92308868003083
 30
0.0
 11
30.03692040045787
 21
-34.13011606322457
 31
0.0
  0
LINE
  5
AA
330
1F
100
AcDbEntity
  8
0
100
AcDbLine
 10
31.52998083568827
 20
-33.73016933916202
 30
0.0
 11
31.40286838948093
 21
-33.56450533611066
 31
0.0
  0
LINE
  5
AB
330
1F
100
AcDbEntity
  8
0
100
AcDbLine
 10
44.09637408307203
 20
-31.27330538108561
 30
0.0
 11
44.09573167865948
 21
-33.38735610669519
 31
0.0
  0
LINE
  5
AC
330
1F
100
AcDbEntity
  8
0
100
AcDbLine
 10
30.83717248876173
 20
-33.33022041047687
 30
0.0
 11
30.63008910752421
 21
-33.35747633902161
 31
0.0
  0
LINE
  5
AD
330
1F
100
AcDbEntity
  8
0
100
AcDbLine
 10
31.53353176096023
 20
-17.38760355946402
 30
0.0
 11
31.61351155678716
 21
-17.19464024966494
 31
0.0
  0
LINE
  5
AE
330
1F
100
AcDbEntity
  8
0
100
AcDbLine
 10
30.06769123183768
 20
-17.19464024966494
 30
0.0
 11
30.14758901599136
 21
-17.38760355946402
 31
0.0
  0
LINE
  5
AF
330
1F
100
AcDbEntity
  8
0
100
AcDbLine
 10
30.43921312776075
 20
-23.39503033132175
 30
0.0
 11
30.63217509953157
 21
-23.47495158406249
 31
0.0
  0
LINE
  5
B0
330
1F
100
AcDbEntity
  8
0
100
AcDbLine
 10
31.40534146225508
 20
-22.13649857170546
 30
0.0
 11
31.2396527053668
 21
-22.00935983196914
 31
0.0
  0
LINE
  5
B1
330
1F
100
AcDbEntity
  8
0
100
AcDbLine
 10
31.61226673262896
 20
-22.90925779093604
 30
0.0
 11
31.63957612032956
 21
-22.70219838933338
 31
0.0
  0
LINE
  5
B2
330
1F
100
AcDbEntity
  8
0
100
AcDbLine
 10
30.84081542180476
 20
-16.18747988671897
 30
0.0
 11
30.63370757620193
 21
-16.21474225537288
 31
0.0
  0
LINE
  5
B3
330
1F
100
AcDbEntity
  8
0
100
AcDbLine
 10
30.44070242154841
 20
-16.29467141692878
 30
0.0
 11
30.27495310151704
 21
-16.42182016982897
 31
0.0
  0
LINE
  5
B4
330
1F
100
AcDbEntity
  8
0
100
AcDbLine
 10
31.04758101812923
 20
-17.76037859523035
 30
0.0
 11
31.24058455779071
 21
-17.68045104812889
 31
0.0
  0
LINE
  5
B5
330
1F
100
AcDbEntity
  8
0
100
AcDbLine
 10
31.24058455779071
 20
-17.68045104812889
 30
0.0
 11
31.40633328635086
 21
-17.55330450061452
 31
0.0
  0
LINE
  5
B6
330
1F
100
AcDbEntity
  8
0
100
AcDbLine
 10
31.23719267791094
 20
-33.43738661915381
 30
0.0
 11
31.04424428590944
 21
-33.35747633902161
 31
0.0
  0
LINE
  5
B7
330
1F
100
AcDbEntity
  8
0
100
AcDbLine
 10
23.07126225085068
 20
6.675808933081489
 30
0.0
 11
-18.31604738131033
 21
6.675808933081489
 31
0.0
  0
LINE
  5
B8
330
1F
100
AcDbEntity
  8
0
100
AcDbLine
 10
31.53246391612476
 20
-22.30218866887213
 30
0.0
 11
31.40534146225508
 21
-22.13649857170546
 31
0.0
  0
LINE
  5
B9
330
1F
100
AcDbEntity
  8
0
100
AcDbLine
 10
23.07126225085068
 20
6.675808933081489
 30
0.0
 11
23.06882733414704
 21
-8.643390855429113
 31
0.0
  0
LINE
  5
BA
330
1F
100
AcDbEntity
  8
0
100
AcDbLine
 10
-15.57844871945473
 20
-0.7555816156913783
 30
0.0
 11
-15.78531927458474
 21
-0.78468853620615
 31
0.0
  0
LINE
  5
BB
330
1F
100
AcDbEntity
  8
0
100
AcDbLine
 10
31.2396527053668
 20
-22.00935983196914
 30
0.0
 11
31.04668911941724
 21
-21.9294369649646
 31
0.0
  0
LINE
  5
BC
330
1F
100
AcDbEntity
  8
0
100
AcDbLine
 10
30.63217509953157
 20
-23.47495158406249
 30
0.0
 11
30.83926099843707
 21
-23.50221121489821
 31
0.0
  0
LINE
  5
BD
330
1F
100
AcDbEntity
  8
0
100
AcDbLine
 10
30.06777703592051
 20
-16.78048824061884
 30
0.0
 11
30.04046877658221
 21
-16.98756454060755
 31
0.0
  0
LINE
  5
BE
330
1F
100
AcDbEntity
  8
0
100
AcDbLine
 10
30.14640191606558
 20
-23.10220590466932
 30
0.0
 11
30.27352496135983
 21
-23.26789379671067
 31
0.0
  0
LINE
  5
BF
330
1F
100
AcDbEntity
  8
0
100
AcDbLine
 10
31.40286838948093
 20
-33.56450533611066
 30
0.0
 11
31.23719267791094
 21
-33.43738661915381
 31
0.0
  0
LINE
  5
C0
330
1F
100
AcDbEntity
  8
0
100
AcDbLine
 10
30.63008910752421
 20
-33.35747633902161
 30
0.0
 11
30.43710675271501
 21
-33.43738661915381
 31
0.0
  0
LINE
  5
C1
330
1F
100
AcDbEntity
  8
0
100
AcDbLine
 10
30.83926099843707
 20
-23.50221121489821
 30
0.0
 11
31.04635848300588
 21
-23.47495158406249
 31
0.0
  0
LINE
  5
C2
330
1F
100
AcDbEntity
  8
0
100
AcDbLine
 10
31.60977737838905
 20
-34.33714285569629
 30
0.0
 11
31.63708461201734
 21
-34.13011606322457
 31
0.0
  0
LINE
  5
C3
330
1F
100
AcDbEntity
  8
0
100
AcDbLine
 10
31.53229008776397
 20
-23.10220590466932
 30
0.0
 11
31.61226673262896
 21
-22.90925779093604
 31
0.0
  0
LINE
  5
C4
330
1F
100
AcDbEntity
  8
0
100
AcDbLine
 10
31.40509662316936
 20
-23.26789379671067
 30
0.0
 11
31.53229008776397
 21
-23.10220590466932
 31
0.0
  0
LINE
  5
C5
330
1F
100
AcDbEntity
  8
0
100
AcDbLine
 10
-15.97760142491338
 20
-0.8663459869438683
 30
0.0
 11
-16.14219130122702
 21
-0.9949889834030723
 31
0.0
  0
LINE
  5
C6
330
1F
100
AcDbEntity
  8
0
100
AcDbLine
 10
31.23935442224788
 20
-23.39503033132175
 30
0.0
 11
31.40509662316936
 21
-23.26789379671067
 31
0.0
  0
LINE
  5
C7
330
1F
100
AcDbEntity
  8
0
100
AcDbLine
 10
31.63708461201734
 20
-34.13011606322457
 30
0.0
 11
31.60986757246362
 21
-33.92308868003083
 31
0.0
  0
LINE
  5
C8
330
1F
100
AcDbEntity
  8
0
100
AcDbLine
 10
30.0392858913926
 20
-22.70219838933338
 30
0.0
 11
30.06650727641535
 21
-22.90925779093604
 31
0.0
  0
LINE
  5
C9
330
1F
100
AcDbEntity
  8
0
100
AcDbLine
 10
30.43710675271501
 20
-33.43738661915381
 30
0.0
 11
30.27137701419711
 21
-33.56450533611066
 31
0.0
  0
LINE
  5
CA
330
1F
100
AcDbEntity
  8
0
100
AcDbLine
 10
30.27137701419711
 20
-33.56450533611066
 30
0.0
 11
30.14419415884257
 21
-33.73016933916202
 31
0.0
  0
LINE
  5
CB
330
1F
100
AcDbEntity
  8
0
100
AcDbLine
 10
30.14775521744158
 20
-16.5875233163653
 30
0.0
 11
30.06777703592051
 21
-16.78048824061884
 31
0.0
  0
LINE
  5
CC
330
1F
100
AcDbEntity
  8
0
100
AcDbLine
 10
-16.3423532750742
 20
-1.769782677267266
 30
0.0
 11
-16.26067407050503
 21
-1.962069256380859
 31
0.0
  0
LINE
  5
CD
330
1F
100
AcDbEntity
  8
0
100
AcDbLine
 10
20.32471065008522
 20
-12.18692428902079
 30
0.0
 11
20.11759907095171
 21
-12.21418816069526
 31
0.0
  0
LINE
  5
CE
330
1F
100
AcDbEntity
  8
0
100
AcDbLine
 10
-14.87463996209821
 20
-1.949757075361728
 30
0.0
 11
-14.79643104734205
 21
-1.756050187204477
 31
0.0
  0
LINE
  5
CF
330
1F
100
AcDbEntity
  8
0
100
AcDbLine
 10
20.890343074008
 20
-13.55282420279362
 30
0.0
 11
21.01753304782478
 21
-13.38711412634944
 31
0.0
  0
LINE
  5
D0
330
1F
100
AcDbEntity
  8
0
100
AcDbLine
 10
20.32631151957816
 20
-0.7555500430454761
 30
0.0
 11
20.11918362706804
 21
-0.7828182097493784
 31
0.0
  0
LINE
  5
D1
330
1F
100
AcDbEntity
  8
0
100
AcDbLine
 10
20.89050594931982
 20
-12.42127749169833
 30
0.0
 11
20.72479688806298
 21
-12.29412172887961
 31
0.0
  0
LINE
  5
D2
330
1F
100
AcDbEntity
  8
0
100
AcDbLine
 10
20.53181459305894
 20
-12.21418816069526
 30
0.0
 11
20.32471065008522
 21
-12.18692428902079
 31
0.0
  0
LINE
  5
D3
330
1F
100
AcDbEntity
  8
0
100
AcDbLine
 10
-15.16491093638911
 20
-2.245257173497208
 30
0.0
 11
-15.00032161168107
 21
-2.116616393280479
 31
0.0
  0
LINE
  5
D4
330
1F
100
AcDbEntity
  8
0
100
AcDbLine
 10
20.5315959217564
 20
-13.75990971364052
 30
0.0
 11
20.72459898986765
 21
-13.67997776004412
 31
0.0
  0
LINE
  5
D5
330
1F
100
AcDbEntity
  8
0
100
AcDbLine
 10
21.12479727832155
 20
-12.98705305281415
 30
0.0
 11
21.09756127331906
 21
-12.77996533641198
 31
0.0
  0
LINE
  5
D6
330
1F
100
AcDbEntity
  8
0
100
AcDbLine
 10
20.72642926901784
 20
-0.8627643703089135
 30
0.0
 11
20.53343177472552
 21
-0.7828182097493784
 31
0.0
  0
LINE
  5
D7
330
1F
100
AcDbEntity
  8
0
100
AcDbLine
 10
20.1189693335583
 20
-2.328783267493182
 30
0.0
 11
20.32608738266784
 21
-2.356050843077174
 31
0.0
  0
LINE
  5
D8
330
1F
100
AcDbEntity
  8
0
100
AcDbLine
 10
19.55323390263465
 20
-1.348684515311058
 30
0.0
 11
19.52593774379594
 21
-1.55580485524012
 31
0.0
  0
LINE
  5
D9
330
1F
100
AcDbEntity
  8
0
100
AcDbLine
 10
21.09916279233782
 20
-1.762924604049336
 30
0.0
 11
21.12646115721428
 21
-1.55580485524012
 31
0.0
  0
LINE
  5
DA
330
1F
100
AcDbEntity
  8
0
100
AcDbLine
 10
-15.00032161168107
 20
-2.116616393280479
 30
0.0
 11
-14.87463996209821
 21
-1.949757075361728
 31
0.0
  0
LINE
  5
DB
330
1F
100
AcDbEntity
  8
0
100
AcDbLine
 10
-14.79643104734205
 20
-1.756050187204477
 30
0.0
 11
-14.77102483990079
 21
-1.548696374675387
 31
0.0
  0
LINE
  5
DC
330
1F
100
AcDbEntity
  8
0
100
AcDbLine
 10
-14.77102483990079
 20
-1.548696374675387
 30
0.0
 11
-14.80015295223754
 21
-1.341826402299061
 31
0.0
  0
LINE
  5
DD
330
1F
100
AcDbEntity
  8
0
100
AcDbLine
 10
21.09756127331906
 20
-12.77996533641198
 30
0.0
 11
21.01764891913909
 21
-12.5869897737107
 31
0.0
  0
LINE
  5
DE
330
1F
100
AcDbEntity
  8
0
100
AcDbLine
 10
21.12646115721428
 20
-1.55580485524012
 30
0.0
 11
21.09922300935948
 21
-1.348684515311058
 31
0.0
  0
LINE
  5
DF
330
1F
100
AcDbEntity
  8
0
100
AcDbLine
 10
-15.96513648726154
 20
-2.252365585833407
 30
0.0
 11
-15.77141849860548
 21
-2.330592561763297
 31
0.0
  0
LINE
  5
E0
330
1F
100
AcDbEntity
  8
0
100
AcDbLine
 10
20.89198847987548
 20
-2.121665133640587
 30
0.0
 11
21.01918847356686
 21
-1.955928952194241
 31
0.0
  0
LINE
  5
E1
330
1F
100
AcDbEntity
  8
0
100
AcDbLine
 10
21.01930436313492
 20
-1.155678552196631
 30
0.0
 11
20.89215138084581
 21
-0.9899401646608904
 31
0.0
  0
LINE
  5
E2
330
1F
100
AcDbEntity
  8
0
100
AcDbLine
 10
-26.29137609907557
 20
-27.64368164179483
 30
0.0
 11
-26.48433470583657
 21
-27.72359821499147
 31
0.0
  0
LINE
  5
E3
330
1F
100
AcDbEntity
  8
0
100
AcDbLine
 10
-26.08429525571334
 20
-27.6164235668006
 30
0.0
 11
-26.29137609907557
 21
-27.64368164179483
 31
0.0
  0
LINE
  5
E4
330
1F
100
AcDbEntity
  8
0
100
AcDbLine
 10
-25.51929105412929
 20
-23.26789379671067
 30
0.0
 11
-25.39216258086313
 21
-23.10220590466932
 31
0.0
  0
LINE
  5
E5
330
1F
100
AcDbEntity
  8
0
100
AcDbLine
 10
-26.88426507550826
 20
-28.41638221248672
 30
0.0
 11
-26.85696354766381
 21
-28.62342530856095
 31
0.0
  0
LINE
  5
E6
330
1F
100
AcDbEntity
  8
0
100
AcDbLine
 10
-26.85704018326688
 20
-28.20933852562077
 30
0.0
 11
-26.88426507550826
 21
-28.41638221248672
 31
0.0
  0
LINE
  5
E7
330
1F
100
AcDbEntity
  8
0
100
AcDbLine
 10
-26.77699637403752
 20
-28.81635822802343
 30
0.0
 11
-26.64981334660749
 21
-28.98203307249701
 31
0.0
  0
LINE
  5
E8
330
1F
100
AcDbEntity
  8
0
100
AcDbLine
 10
-43.3418507276804
 20
-34.75859931827193
 30
0.0
 11
-40.71302090859979
 21
-34.75859931827193
 31
0.0
  0
LINE
  5
E9
330
1F
100
AcDbEntity
  8
0
100
AcDbLine
 10
-25.39130273990933
 20
-28.01640399208521
 30
0.0
 11
-25.51848517682621
 21
-27.85072694274679
 31
0.0
  0
LINE
  5
EA
330
1F
100
AcDbEntity
  8
0
100
AcDbLine
 10
-25.31133718038756
 20
-28.20933852562077
 30
0.0
 11
-25.39130273990933
 21
-28.01640399208521
 31
0.0
  0
LINE
  5
EB
330
1F
100
AcDbEntity
  8
0
100
AcDbLine
 10
-25.68421727723597
 20
-27.72359821499147
 30
0.0
 11
-25.87720461331015
 21
-27.64368164179483
 31
0.0
  0
LINE
  5
EC
330
1F
100
AcDbEntity
  8
0
100
AcDbLine
 10
-26.85696354766381
 20
-28.62342530856095
 30
0.0
 11
-26.77699637403752
 21
-28.81635822802343
 31
0.0
  0
LINE
  5
ED
330
1F
100
AcDbEntity
  8
0
100
AcDbLine
 10
-25.87720461331015
 20
-27.64368164179483
 30
0.0
 11
-26.08429525571334
 21
-27.6164235668006
 31
0.0
  0
LINE
  5
EE
330
1F
100
AcDbEntity
  8
0
100
AcDbLine
 10
-15.96576525003657
 20
3.463878952653075
 30
0.0
 11
-15.77203963175548
 21
3.385645814901067
 31
0.0
  0
LINE
  5
EF
330
1F
100
AcDbEntity
  8
0
100
AcDbLine
 10
-25.68498338555112
 20
-23.39503033132175
 30
0.0
 11
-25.51929105412929
 21
-23.26789379671067
 31
0.0
  0
LINE
  5
F0
330
1F
100
AcDbEntity
  8
0
100
AcDbLine
 10
-25.39216258086313
 20
-23.10220590466932
 30
0.0
 11
-25.31226162019011
 21
-22.90925779093604
 31
0.0
  0
LINE
  5
F1
330
1F
100
AcDbEntity
  8
0
100
AcDbLine
 10
-25.28403785774102
 20
-28.41638221248672
 30
0.0
 11
-25.31133718038756
 21
-28.20933852562077
 31
0.0
  0
LINE
  5
F2
330
1F
100
AcDbEntity
  8
0
100
AcDbLine
 10
-26.6500211045741
 20
-27.85072694274679
 30
0.0
 11
-26.77714398203234
 21
-28.01640399208521
 31
0.0
  0
LINE
  5
F3
330
1F
100
AcDbEntity
  8
0
100
AcDbLine
 10
-26.48433470583657
 20
-27.72359821499147
 30
0.0
 11
-26.6500211045741
 21
-27.85072694274679
 31
0.0
  0
LINE
  5
F4
330
1F
100
AcDbEntity
  8
0
100
AcDbLine
 10
-25.31226162019011
 20
-22.90925779093604
 30
0.0
 11
-25.28503345185567
 21
-22.70219838933338
 31
0.0
  0
LINE
  5
F5
330
1F
100
AcDbEntity
  8
0
100
AcDbLine
 10
-26.77714398203234
 20
-28.01640399208521
 30
0.0
 11
-26.85704018326688
 21
-28.20933852562077
 31
0.0
  0
LINE
  5
F6
330
1F
100
AcDbEntity
  8
0
100
AcDbLine
 10
-43.3418507276804
 20
-34.75859931827193
 30
0.0
 11
-43.32102432850483
 21
-104.4864171344363
 31
0.0
  0
LINE
  5
F7
330
1F
100
AcDbEntity
  8
0
100
AcDbLine
 10
-25.51848517682621
 20
-27.85072694274679
 30
0.0
 11
-25.68421727723597
 21
-27.72359821499147
 31
0.0
  0
LINE
  5
F8
330
1F
100
AcDbEntity
  8
0
100
AcDbLine
 10
-16.26851301073006
 20
4.554479940516537
 30
0.0
 11
-16.34672336112749
 21
4.360756208098467
 31
0.0
  0
LINE
  5
F9
330
1F
100
AcDbEntity
  8
0
100
AcDbLine
 10
-15.77203963175548
 20
3.385645814901067
 30
0.0
 11
-15.5646728273138
 21
3.360217102713539
 31
0.0
  0
LINE
  5
FA
330
1F
100
AcDbEntity
  8
0
100
AcDbLine
 10
-15.37169323849442
 20
4.935351558786057
 30
0.0
 11
-15.57906225944366
 21
4.960780822874292
 31
0.0
  0
LINE
  5
FB
330
1F
100
AcDbEntity
  8
0
100
AcDbLine
 10
-16.34299689610242
 20
3.946499873628137
 30
0.0
 11
-16.26131447386207
 21
3.754198148343301
 31
0.0
  0
LINE
  5
FC
330
1F
100
AcDbEntity
  8
0
100
AcDbLine
 10
19.55400398199905
 20
4.367631205025472
 30
0.0
 11
19.52670674703828
 21
4.160494550441985
 31
0.0
  0
LINE
  5
FD
330
1F
100
AcDbEntity
  8
0
100
AcDbLine
 10
-15.5646728273138
 20
3.360217102713539
 30
0.0
 11
-15.3577963203166
 21
3.389325685668937
 31
0.0
  0
LINE
  5
FE
330
1F
100
AcDbEntity
  8
0
100
AcDbLine
 10
20.32711204889735
 20
4.960812398007151
 30
0.0
 11
20.11997599873518
 21
4.93354208340795
 31
0.0
  0
LINE
  5
FF
330
1F
100
AcDbEntity
  8
0
100
AcDbLine
 10
-16.26131447386207
 20
3.754198148343301
 30
0.0
 11
-16.13264776562603
 21
3.589585215379266
 31
0.0
  0
LINE
  5
100
330
1F
100
AcDbEntity
  8
0
100
AcDbLine
 10
-15.97823068461033
 20
4.850007726788588
 30
0.0
 11
-16.14282704254594
 21
4.721354597217561
 31
0.0
  0
LINE
  5
101
330
1F
100
AcDbEntity
  8
0
100
AcDbLine
 10
-15.57906225944366
 20
4.960780822874292
 30
0.0
 11
-15.78594096181721
 21
4.931671609626826
 31
0.0
  0
LINE
  5
102
330
1F
100
AcDbEntity
  8
0
100
AcDbLine
 10
-16.34672336112749
 20
4.360756208098467
 30
0.0
 11
-16.37212835181859
 21
4.153385510646359
 31
0.0
  0
LINE
  5
103
330
1F
100
AcDbEntity
  8
0
100
AcDbLine
 10
-15.78594096181721
 20
4.931671609626826
 30
0.0
 11
-15.97823068461033
 21
4.850007726788588
 31
0.0
  0
LINE
  5
104
330
1F
100
AcDbEntity
  8
0
100
AcDbLine
 10
21.10005397554776
 20
4.367631205025472
 30
0.0
 11
21.02013218292932
 21
4.560652371040429
 31
0.0
  0
LINE
  5
105
330
1F
100
AcDbEntity
  8
0
100
AcDbLine
 10
21.02013218292932
 20
4.560652371040429
 30
0.0
 11
20.8929741938139
 21
4.726403813651221
 31
0.0
  0
LINE
  5
106
330
1F
100
AcDbEntity
  8
0
100
AcDbLine
 10
-15.3577963203166
 20
3.389325685668937
 30
0.0
 11
-15.16550818351932
 21
3.47098792490847
 31
0.0
  0
LINE
  5
107
330
1F
100
AcDbEntity
  8
0
100
AcDbLine
 10
21.09999375378286
 20
3.953358487048239
 30
0.0
 11
21.12729319495516
 21
4.160494550441985
 31
0.0
  0
LINE
  5
108
330
1F
100
AcDbEntity
  8
0
100
AcDbLine
 10
-16.37212835181859
 20
4.153385510646359
 30
0.0
 11
-16.34299689610242
 21
3.946499873628137
 31
0.0
  0
LINE
  5
109
330
1F
100
AcDbEntity
  8
0
100
AcDbLine
 10
-16.14282704254594
 20
4.721354597217561
 30
0.0
 11
-16.26851301073006
 21
4.554479940516537
 31
0.0
  0
LINE
  5
10A
330
1F
100
AcDbEntity
  8
0
100
AcDbLine
 10
21.02001628423276
 20
3.760338936193623
 30
0.0
 11
21.09999375378286
 21
3.953358487048239
 31
0.0
  0
LINE
  5
10B
330
1F
100
AcDbEntity
  8
0
100
AcDbLine
 10
-16.13264776562603
 20
3.589585215379266
 30
0.0
 11
-15.96576525003657
 21
3.463878952653075
 31
0.0
  0
LINE
  5
10C
330
1F
100
AcDbEntity
  8
0
100
AcDbLine
 10
20.89281128001204
 20
3.594589699932888
 30
0.0
 11
21.02001628423276
 21
3.760338936193623
 31
0.0
  0
LINE
  5
10D
330
1F
100
AcDbEntity
  8
0
100
AcDbLine
 10
19.76118425001071
 20
4.726403813651221
 30
0.0
 11
19.63397983665577
 21
4.560652371040429
 31
0.0
  0
LINE
  5
10E
330
1F
100
AcDbEntity
  8
0
100
AcDbLine
 10
20.72479688806298
 20
-12.29412172887961
 30
0.0
 11
20.53181459305894
 21
-12.21418816069526
 31
0.0
  0
LINE
  5
10F
330
1F
100
AcDbEntity
  8
0
100
AcDbLine
 10
19.92694851053889
 20
4.853589625544913
 30
0.0
 11
19.76118425001071
 21
4.726403813651221
 31
0.0
  0
LINE
  5
110
330
1F
100
AcDbEntity
  8
0
100
AcDbLine
 10
20.72724555592947
 20
4.853589625544913
 30
0.0
 11
20.53424046109515
 21
4.93354208340795
 31
0.0
  0
LINE
  5
111
330
1F
100
AcDbEntity
  8
0
100
AcDbLine
 10
19.63397983665577
 20
4.560652371040429
 30
0.0
 11
19.55400398199905
 21
4.367631205025472
 31
0.0
  0
LINE
  5
112
330
1F
100
AcDbEntity
  8
0
100
AcDbLine
 10
19.92440413070312
 20
-13.67997776004412
 30
0.0
 11
20.11738481119531
 21
-13.75990971364052
 31
0.0
  0
LINE
  5
113
330
1F
100
AcDbEntity
  8
0
100
AcDbLine
 10
20.8929741938139
 20
4.726403813651221
 30
0.0
 11
20.72724555592947
 21
4.853589625544913
 31
0.0
  0
LINE
  5
114
330
1F
100
AcDbEntity
  8
0
100
AcDbLine
 10
20.11759907095171
 20
-12.21418816069526
 30
0.0
 11
19.92459438787636
 21
-12.29412172887961
 31
0.0
  0
LINE
  5
115
330
1F
100
AcDbEntity
  8
0
100
AcDbLine
 10
20.53424046109515
 20
4.93354208340795
 30
0.0
 11
20.32711204889735
 21
4.960812398007151
 31
0.0
  0
LINE
  5
116
330
1F
100
AcDbEntity
  8
0
100
AcDbLine
 10
21.12729319495516
 20
4.160494550441985
 30
0.0
 11
21.10005397554776
 21
4.367631205025472
 31
0.0
  0
LINE
  5
117
330
1F
100
AcDbEntity
  8
0
100
AcDbLine
 10
20.72704761096762
 20
3.467406094389225
 30
0.0
 11
20.89281128001204
 21
3.594589699932888
 31
0.0
  0
LINE
  5
118
330
1F
100
AcDbEntity
  8
0
100
AcDbLine
 10
20.72459898986765
 20
-13.67997776004412
 30
0.0
 11
20.890343074008
 21
-13.55282420279362
 31
0.0
  0
LINE
  5
119
330
1F
100
AcDbEntity
  8
0
100
AcDbLine
 10
19.92459438787636
 20
-12.29412172887961
 30
0.0
 11
19.75884971239203
 21
-12.42127749169833
 31
0.0
  0
LINE
  5
11A
330
1F
100
AcDbEntity
  8
0
100
AcDbLine
 10
21.01753304782478
 20
-13.38711412634944
 30
0.0
 11
21.09750106578217
 21
-13.19414017823614
 31
0.0
  0
LINE
  5
11B
330
1F
100
AcDbEntity
  8
0
100
AcDbLine
 10
20.32448654847868
 20
-13.78717299433475
 30
0.0
 11
20.5315959217564
 21
-13.75990971364052
 31
0.0
  0
LINE
  5
11C
330
1F
100
AcDbEntity
  8
0
100
AcDbLine
 10
19.75869566017253
 20
-13.55282420279362
 30
0.0
 11
19.92440413070312
 21
-13.67997776004412
 31
0.0
  0
LINE
  5
11D
330
1F
100
AcDbEntity
  8
0
100
AcDbLine
 10
19.63166032930147
 20
-12.5869897737107
 30
0.0
 11
19.55169392585596
 21
-12.77996533641198
 31
0.0
  0
LINE
  5
11E
330
1F
100
AcDbEntity
  8
0
100
AcDbLine
 10
19.55169392585596
 20
-12.77996533641198
 30
0.0
 11
19.52439991900688
 21
-12.98705305281415
 31
0.0
  0
LINE
  5
11F
330
1F
100
AcDbEntity
  8
0
100
AcDbLine
 10
21.01764891913909
 20
-12.5869897737107
 30
0.0
 11
20.89050594931982
 21
-12.42127749169833
 31
0.0
  0
LINE
  5
120
330
1F
100
AcDbEntity
  8
0
100
AcDbLine
 10
19.75884971239203
 20
-12.42127749169833
 30
0.0
 11
19.63166032930147
 21
-12.5869897737107
 31
0.0
  0
LINE
  5
121
330
1F
100
AcDbEntity
  8
0
100
AcDbLine
 10
21.09750106578217
 20
-13.19414017823614
 30
0.0
 11
21.12479727832155
 21
-12.98705305281415
 31
0.0
  0
LINE
  5
122
330
1F
100
AcDbEntity
  8
0
100
AcDbLine
 10
20.11997599873518
 20
4.93354208340795
 30
0.0
 11
19.92694851053889
 21
4.853589625544913
 31
0.0
  0
LINE
  5
123
330
1F
100
AcDbEntity
  8
0
100
AcDbLine
 10
20.11738481119531
 20
-13.75990971364052
 30
0.0
 11
20.32448654847868
 21
-13.78717299433475
 31
0.0
  0
LINE
  5
124
330
1F
100
AcDbEntity
  8
0
100
AcDbLine
 10
30.63096896899904
 20
-29.18907455451106
 30
0.0
 11
30.83804671420218
 21
-29.21633203871352
 31
0.0
  0
LINE
  5
125
330
1F
100
AcDbEntity
  8
0
100
AcDbLine
 10
30.2723329508428
 20
-28.98203307249701
 30
0.0
 11
30.43801459437426
 21
-29.10915959538747
 31
0.0
  0
LINE
  5
126
330
1F
100
AcDbEntity
  8
0
100
AcDbLine
 10
31.23842264320704
 20
-27.72359821499147
 30
0.0
 11
31.04546665453061
 21
-27.64368164179483
 31
0.0
  0
LINE
  5
127
330
1F
100
AcDbEntity
  8
0
100
AcDbLine
 10
31.04513604415625
 20
-29.18907455451106
 30
0.0
 11
31.23812438357736
 21
-29.10915959538747
 31
0.0
  0
LINE
  5
128
330
1F
100
AcDbEntity
  8
0
100
AcDbLine
 10
30.27256894943148
 20
-27.85072694274679
 30
0.0
 11
30.14538108489791
 21
-28.01640399208521
 31
0.0
  0
LINE
  5
129
330
1F
100
AcDbEntity
  8
0
100
AcDbLine
 10
30.62976293344466
 20
-34.90274755973184
 30
0.0
 11
30.83683252558748
 21
-34.93000289755463
 31
0.0
  0
LINE
  5
12A
330
1F
100
AcDbEntity
  8
0
100
AcDbLine
 10
31.04546665453061
 20
-27.64368164179483
 30
0.0
 11
30.83838670414895
 21
-27.6164235668006
 31
0.0
  0
LINE
  5
12B
330
1F
100
AcDbEntity
  8
0
100
AcDbLine
 10
30.14656810442724
 20
-22.30218866887213
 30
0.0
 11
30.06659307374099
 21
-22.49513839686917
 31
0.0
  0
LINE
  5
12C
330
1F
100
AcDbEntity
  8
0
100
AcDbLine
 10
30.06413964526758
 20
-34.33714285569629
 30
0.0
 11
30.14402799665341
 21
-34.53006058268267
 31
0.0
  0
LINE
  5
12D
330
1F
100
AcDbEntity
  8
0
100
AcDbLine
 10
-14.8769944952561
 20
-13.38711412634944
 30
0.0
 11
-14.79707420424294
 21
-13.19414017823614
 31
0.0
  0
LINE
  5
12E
330
1F
100
AcDbEntity
  8
0
100
AcDbLine
 10
30.43950377088053
 20
-22.00935983196914
 30
0.0
 11
30.27376097853443
 21
-22.13649857170546
 31
0.0
  0
LINE
  5
12F
330
1F
100
AcDbEntity
  8
0
100
AcDbLine
 10
31.23689444176771
 20
-34.82283889348209
 30
0.0
 11
31.40262358895417
 21
-34.69572238112962
 31
0.0
  0
LINE
  5
130
330
1F
100
AcDbEntity
  8
0
100
AcDbLine
 10
31.63833031712209
 20
-28.41638221248672
 30
0.0
 11
31.61111220767758
 21
-28.20933852562077
 31
0.0
  0
LINE
  5
131
330
1F
100
AcDbEntity
  8
0
100
AcDbLine
 10
30.43830521460644
 20
-27.72359821499147
 30
0.0
 11
30.27256894943148
 21
-27.85072694274679
 31
0.0
  0
LINE
  5
132
330
1F
100
AcDbEntity
  8
0
100
AcDbLine
 10
30.06659307374099
 20
-22.49513839686917
 30
0.0
 11
30.0392858913926
 21
-22.70219838933338
 31
0.0
  0
LINE
  5
133
330
1F
100
AcDbEntity
  8
0
100
AcDbLine
 10
31.61102200650011
 20
-28.62342530856095
 30
0.0
 11
31.63833031712209
 21
-28.41638221248672
 31
0.0
  0
LINE
  5
134
330
1F
100
AcDbEntity
  8
0
100
AcDbLine
 10
31.04668911941724
 20
-21.9294369649646
 30
0.0
 11
30.83960101515952
 21
-21.90217674326736
 31
0.0
  0
LINE
  5
135
330
1F
100
AcDbEntity
  8
0
100
AcDbLine
 10
30.14538108489791
 20
-28.01640399208521
 30
0.0
 11
30.06540920479825
 21
-28.20933852562077
 31
0.0
  0
LINE
  5
136
330
1F
100
AcDbEntity
  8
0
100
AcDbLine
 10
31.53122232702093
 20
-28.01640399208521
 30
0.0
 11
31.40410487717938
 21
-27.85072694274679
 31
0.0
  0
LINE
  5
137
330
1F
100
AcDbEntity
  8
0
100
AcDbLine
 10
30.63250132498736
 20
-21.9294369649646
 30
0.0
 11
30.43950377088053
 21
-22.00935983196914
 31
0.0
  0
LINE
  5
138
330
1F
100
AcDbEntity
  8
0
100
AcDbLine
 10
30.83838670414895
 20
-27.6164235668006
 30
0.0
 11
30.6312951687652
 21
-27.64368164179483
 31
0.0
  0
LINE
  5
139
330
1F
100
AcDbEntity
  8
0
100
AcDbLine
 10
31.40410487717938
 20
-27.85072694274679
 30
0.0
 11
31.23842264320704
 21
-27.72359821499147
 31
0.0
  0
LINE
  5
13A
330
1F
100
AcDbEntity
  8
0
100
AcDbLine
 10
-15.97020347763766
 20
-12.29412172887961
 30
0.0
 11
-16.13591670454535
 21
-12.42127749169833
 31
0.0
  0
LINE
  5
13B
330
1F
100
AcDbEntity
  8
0
100
AcDbLine
 10
-15.56994205074234
 20
-13.78717299433475
 30
0.0
 11
-15.36283942030786
 21
-13.75990971364052
 31
0.0
  0
LINE
  5
13C
330
1F
100
AcDbEntity
  8
0
100
AcDbLine
 10
30.43801459437426
 20
-29.10915959538747
 30
0.0
 11
30.63096896899904
 21
-29.18907455451106
 31
0.0
  0
LINE
  5
13D
330
1F
100
AcDbEntity
  8
0
100
AcDbLine
 10
31.61111220767758
 20
-28.20933852562077
 30
0.0
 11
31.53122232702093
 21
-28.01640399208521
 31
0.0
  0
LINE
  5
13E
330
1F
100
AcDbEntity
  8
0
100
AcDbLine
 10
-16.13579089895352
 20
-13.55282420279362
 30
0.0
 11
-15.97005098039176
 21
-13.67997776004412
 31
0.0
  0
LINE
  5
13F
330
1F
100
AcDbEntity
  8
0
100
AcDbLine
 10
-14.79707420424294
 20
-13.19414017823614
 30
0.0
 11
-14.76982920916466
 21
-12.98705305281415
 31
0.0
  0
LINE
  5
140
330
1F
100
AcDbEntity
  8
0
100
AcDbLine
 10
30.03692040045787
 20
-34.13011606322457
 30
0.0
 11
30.06413964526758
 21
-34.33714285569629
 31
0.0
  0
LINE
  5
141
330
1F
100
AcDbEntity
  8
0
100
AcDbLine
 10
30.6312951687652
 20
-27.64368164179483
 30
0.0
 11
30.43830521460644
 21
-27.72359821499147
 31
0.0
  0
LINE
  5
142
330
1F
100
AcDbEntity
  8
0
100
AcDbLine
 10
-15.16985612122723
 20
-13.67997776004412
 30
0.0
 11
-15.00414348511803
 21
-13.55282420279362
 31
0.0
  0
LINE
  5
143
330
1F
100
AcDbEntity
  8
0
100
AcDbLine
 10
30.27376097853443
 20
-22.13649857170546
 30
0.0
 11
30.14656810442724
 21
-22.30218866887213
 31
0.0
  0
LINE
  5
144
330
1F
100
AcDbEntity
  8
0
100
AcDbLine
 10
-15.57011372784813
 20
-12.18692428902079
 30
0.0
 11
-15.77721856399229
 21
-12.21418816069526
 31
0.0
  0
LINE
  5
145
330
1F
100
AcDbEntity
  8
0
100
AcDbLine
 10
-16.13591670454535
 20
-12.42127749169833
 30
0.0
 11
-16.26306510313556
 21
-12.5869897737107
 31
0.0
  0
LINE
  5
146
330
1F
100
AcDbEntity
  8
0
100
AcDbLine
 10
31.40262358895417
 20
-34.69572238112962
 30
0.0
 11
31.52980703470318
 21
-34.53006058268267
 31
0.0
  0
LINE
  5
147
330
1F
100
AcDbEntity
  8
0
100
AcDbLine
 10
-16.26297544407162
 20
-13.38711412634944
 30
0.0
 11
-16.13579089895352
 21
-13.55282420279362
 31
0.0
  0
LINE
  5
148
330
1F
100
AcDbEntity
  8
0
100
AcDbLine
 10
-15.77705053086894
 20
-13.75990971364052
 30
0.0
 11
-15.56994205074234
 21
-13.78717299433475
 31
0.0
  0
LINE
  5
149
330
1F
100
AcDbEntity
  8
0
100
AcDbLine
 10
30.06532341422898
 20
-28.62342530856095
 30
0.0
 11
30.14521490962328
 21
-28.81635822802343
 31
0.0
  0
LINE
  5
14A
330
1F
100
AcDbEntity
  8
0
100
AcDbLine
 10
31.40386005737429
 20
-28.98203307249701
 30
0.0
 11
31.5310485123488
 21
-28.81635822802343
 31
0.0
  0
LINE
  5
14B
330
1F
100
AcDbEntity
  8
0
100
AcDbLine
 10
31.5310485123488
 20
-28.81635822802343
 30
0.0
 11
31.61102200650011
 21
-28.62342530856095
 31
0.0
  0
LINE
  5
14C
330
1F
100
AcDbEntity
  8
0
100
AcDbLine
 10
31.23812438357736
 20
-29.10915959538747
 30
0.0
 11
31.40386005737429
 21
-28.98203307249701
 31
0.0
  0
LINE
  5
14D
330
1F
100
AcDbEntity
  8
0
100
AcDbLine
 10
30.14521490962328
 20
-28.81635822802343
 30
0.0
 11
30.2723329508428
 21
-28.98203307249701
 31
0.0
  0
LINE
  5
14E
330
1F
100
AcDbEntity
  8
0
100
AcDbLine
 10
31.043913701569
 20
-34.90274755973184
 30
0.0
 11
31.23689444176771
 21
-34.82283889348209
 31
0.0
  0
LINE
  5
14F
330
1F
100
AcDbEntity
  8
0
100
AcDbLine
 10
31.52980703470318
 20
-34.53006058268267
 30
0.0
 11
31.60977737838905
 21
-34.33714285569629
 31
0.0
  0
LINE
  5
150
330
1F
100
AcDbEntity
  8
0
100
AcDbLine
 10
30.83683252558748
 20
-34.93000289755463
 30
0.0
 11
31.043913701569
 21
-34.90274755973184
 31
0.0
  0
LINE
  5
151
330
1F
100
AcDbEntity
  8
0
100
AcDbLine
 10
30.83960101515952
 20
-21.90217674326736
 30
0.0
 11
30.63250132498736
 21
-21.9294369649646
 31
0.0
  0
LINE
  5
152
330
1F
100
AcDbEntity
  8
0
100
AcDbLine
 10
-16.37022656847933
 20
-12.98705305281415
 30
0.0
 11
-16.34293714015987
 21
-13.19414017823614
 31
0.0
  0
LINE
  5
153
330
1F
100
AcDbEntity
  8
0
100
AcDbLine
 10
20.7256130463982
 20
-6.57866813738745
 30
0.0
 11
20.53262315204928
 21
-6.498728273387402
 31
0.0
  0
LINE
  5
154
330
1F
100
AcDbEntity
  8
0
100
AcDbLine
 10
33.58572159950546
 20
-10.01510174325489
 30
0.0
 11
33.58111958196429
 21
-29.90199629887739
 31
0.0
  0
LINE
  5
155
330
1F
100
AcDbEntity
  8
0
100
AcDbLine
 10
-15.36283942030786
 20
-13.75990971364052
 30
0.0
 11
-15.16985612122723
 21
-13.67997776004412
 31
0.0
  0
LINE
  5
156
330
1F
100
AcDbEntity
  8
0
100
AcDbLine
 10
20.53240446352359
 20
-8.044571571539917
 30
0.0
 11
20.72541513261588
 21
-7.96463332231863
 31
0.0
  0
LINE
  5
157
330
1F
100
AcDbEntity
  8
0
100
AcDbLine
 10
21.12562918500566
 20
-7.271654038596202
 30
0.0
 11
21.09839210861916
 21
-7.064550011394106
 31
0.0
  0
LINE
  5
158
330
1F
100
AcDbEntity
  8
0
100
AcDbLine
 10
21.09839210861916
 20
-7.064550011394106
 30
0.0
 11
21.01847660854075
 21
-6.871559249384144
 31
0.0
  0
LINE
  5
159
330
1F
100
AcDbEntity
  8
0
100
AcDbLine
 10
20.89116574454335
 20
-7.837469750153698
 30
0.0
 11
21.0183607281001
 21
-7.671746621979457
 31
0.0
  0
LINE
  5
15A
330
1F
100
AcDbEntity
  8
0
100
AcDbLine
 10
21.09833189634017
 20
-7.47875747474823
 30
0.0
 11
21.12562918500566
 21
-7.271654038596202
 31
0.0
  0
LINE
  5
15B
330
1F
100
AcDbEntity
  8
0
100
AcDbLine
 10
19.75962783030773
 20
-6.705833915381131
 30
0.0
 11
19.63243343752371
 21
-6.871559249384144
 31
0.0
  0
LINE
  5
15C
330
1F
100
AcDbEntity
  8
0
100
AcDbLine
 10
-14.80785024860159
 20
-7.513624616493169
 30
0.0
 11
-14.7712318150117
 21
-7.307972217065279
 31
0.0
  0
LINE
  5
15D
330
1F
100
AcDbEntity
  8
0
100
AcDbLine
 10
-14.86021318113921
 20
-6.903424197898209
 30
0.0
 11
-14.97974944789842
 21
-6.732098041958815
 31
0.0
  0
LINE
  5
15E
330
1F
100
AcDbEntity
  8
0
100
AcDbLine
 10
19.55246388392267
 20
-7.064550011394106
 30
0.0
 11
19.5251688011212
 21
-7.271654038596202
 31
0.0
  0
LINE
  5
15F
330
1F
100
AcDbEntity
  8
0
100
AcDbLine
 10
20.89132863268367
 20
-6.705833915381131
 30
0.0
 11
20.7256130463982
 21
-6.57866813738745
 31
0.0
  0
LINE
  5
160
330
1F
100
AcDbEntity
  8
0
100
AcDbLine
 10
-14.78909175948517
 20
-7.099844204559513
 30
0.0
 11
-14.86021318113921
 21
-6.903424197898209
 31
0.0
  0
LINE
  5
161
330
1F
100
AcDbEntity
  8
0
100
AcDbLine
 10
-16.34293714015987
 20
-13.19414017823614
 30
0.0
 11
-16.26297544407162
 21
-13.38711412634944
 31
0.0
  0
LINE
  5
162
330
1F
100
AcDbEntity
  8
0
100
AcDbLine
 10
-25.56971294850364
 20
-17.59874036808736
 30
0.0
 11
-25.42913233533864
 21
-17.4442819006488
 31
0.0
  0
LINE
  5
163
330
1F
100
AcDbEntity
  8
0
100
AcDbLine
 10
19.63155209900924
 20
-13.38711412634944
 30
0.0
 11
19.75869566017253
 21
-13.55282420279362
 31
0.0
  0
LINE
  5
164
330
1F
100
AcDbEntity
  8
0
100
AcDbLine
 10
-14.7712318150117
 20
-7.307972217065279
 30
0.0
 11
-14.78909175948517
 21
-7.099844204559513
 31
0.0
  0
LINE
  5
165
330
1F
100
AcDbEntity
  8
0
100
AcDbLine
 10
-15.03099698501209
 20
-7.862567296982353
 30
0.0
 11
-14.89645136040081
 21
-7.702786610466506
 31
0.0
  0
LINE
  5
166
330
1F
100
AcDbEntity
  8
0
100
AcDbLine
 10
21.01847660854075
 20
-6.871559249384144
 30
0.0
 11
20.89132863268367
 21
-6.705833915381131
 31
0.0
  0
LINE
  5
167
330
1F
100
AcDbEntity
  8
0
100
AcDbLine
 10
21.0183607281001
 20
-7.671746621979457
 30
0.0
 11
21.09833189634017
 21
-7.47875747474823
 31
0.0
  0
LINE
  5
168
330
1F
100
AcDbEntity
  8
0
100
AcDbLine
 10
20.53262315204928
 20
-6.498728273387402
 30
0.0
 11
20.32551105330994
 21
-6.471462254325111
 31
0.0
  0
LINE
  5
169
330
1F
100
AcDbEntity
  8
0
100
AcDbLine
 10
20.11839131780934
 20
-6.498728273387402
 30
0.0
 11
19.92537903362577
 21
-6.57866813738745
 31
0.0
  0
LINE
  5
16A
330
1F
100
AcDbEntity
  8
0
100
AcDbLine
 10
-16.34298377923754
 20
-12.77996533641198
 30
0.0
 11
-16.37022656847933
 21
-12.98705305281415
 31
0.0
  0
LINE
  5
16B
330
1F
100
AcDbEntity
  8
0
100
AcDbLine
 10
19.92537903362577
 20
-6.57866813738745
 30
0.0
 11
19.75962783030773
 21
-6.705833915381131
 31
0.0
  0
LINE
  5
16C
330
1F
100
AcDbEntity
  8
0
100
AcDbLine
 10
19.63243343752371
 20
-6.871559249384144
 30
0.0
 11
19.55246388392267
 21
-7.064550011394106
 31
0.0
  0
LINE
  5
16D
330
1F
100
AcDbEntity
  8
0
100
AcDbLine
 10
-15.1395544394953
 20
-6.597541545240391
 30
0.0
 11
-15.3287376709976
 21
-6.508924735440857
 31
0.0
  0
LINE
  5
16E
330
1F
100
AcDbEntity
  8
0
100
AcDbLine
 10
-14.97974944789842
 20
-6.732098041958815
 30
0.0
 11
-15.1395544394953
 21
-6.597541545240391
 31
0.0
  0
LINE
  5
16F
330
1F
100
AcDbEntity
  8
0
100
AcDbLine
 10
-25.42913233533864
 20
-17.4442819006488
 30
0.0
 11
-25.33332977626321
 21
-17.25869859612857
 31
0.0
  0
LINE
  5
170
330
1F
100
AcDbEntity
  8
0
100
AcDbLine
 10
-15.3287376709976
 20
-6.508924735440857
 30
0.0
 11
-15.53440647176715
 21
-6.472286876985029
 31
0.0
  0
LINE
  5
171
330
1F
100
AcDbEntity
  8
0
100
AcDbLine
 10
19.52439991900688
 20
-12.98705305281415
 30
0.0
 11
19.55163812986523
 21
-13.19414017823614
 31
0.0
  0
LINE
  5
172
330
1F
100
AcDbEntity
  8
0
100
AcDbLine
 10
-15.77721856399229
 20
-12.21418816069526
 30
0.0
 11
-15.97020347763766
 21
-12.29412172887961
 31
0.0
  0
LINE
  5
173
330
1F
100
AcDbEntity
  8
0
100
AcDbLine
 10
19.55163812986523
 20
-13.19414017823614
 30
0.0
 11
19.63155209900924
 21
-13.38711412634944
 31
0.0
  0
LINE
  5
174
330
1F
100
AcDbEntity
  8
0
100
AcDbLine
 10
20.72541513261588
 20
-7.96463332231863
 30
0.0
 11
20.89116574454335
 21
-7.837469750153698
 31
0.0
  0
LINE
  5
175
330
1F
100
AcDbEntity
  8
0
100
AcDbLine
 10
-15.00414348511803
 20
-13.55282420279362
 30
0.0
 11
-14.8769944952561
 21
-13.38711412634944
 31
0.0
  0
LINE
  5
176
330
1F
100
AcDbEntity
  8
0
100
AcDbLine
 10
-16.26306510313556
 20
-12.5869897737107
 30
0.0
 11
-16.34298377923754
 21
-12.77996533641198
 31
0.0
  0
LINE
  5
177
330
1F
100
AcDbEntity
  8
0
100
AcDbLine
 10
-15.97005098039176
 20
-13.67997776004412
 30
0.0
 11
-15.77705053086894
 21
-13.75990971364052
 31
0.0
  0
LINE
  5
178
330
1F
100
AcDbEntity
  8
0
100
AcDbLine
 10
20.32551105330994
 20
-6.471462254325111
 30
0.0
 11
20.11839131780934
 21
-6.498728273387402
 31
0.0
  0
LINE
  5
179
330
1F
100
AcDbEntity
  8
0
100
AcDbLine
 10
-14.89645136040081
 20
-7.702786610466506
 30
0.0
 11
-14.80785024860159
 21
-7.513624616493169
 31
0.0
  0
LINE
  5
17A
330
1F
100
AcDbEntity
  8
0
100
AcDbLine
 10
-15.53440647176715
 20
-6.472286876985029
 30
0.0
 11
-15.74254463879229
 21
-6.49012485816651
 31
0.0
  0
LINE
  5
17B
330
1F
100
AcDbEntity
  8
0
100
AcDbLine
 10
-26.29213135903413
 20
-23.47495158406249
 30
0.0
 11
-26.08503476749684
 21
-23.50221121489821
 31
0.0
  0
LINE
  5
17C
330
1F
100
AcDbEntity
  8
0
100
AcDbLine
 10
-26.85809771804216
 20
-22.49513839686917
 30
0.0
 11
-26.88532368079261
 21
-22.70219838933338
 31
0.0
  0
LINE
  5
17D
330
1F
100
AcDbEntity
  8
0
100
AcDbLine
 10
-26.65086271593881
 20
-23.26789379671067
 30
0.0
 11
-26.48512468003826
 21
-23.39503033132175
 31
0.0
  0
LINE
  5
17E
330
1F
100
AcDbEntity
  8
0
100
AcDbLine
 10
-26.85802107640369
 20
-22.90925779093604
 30
0.0
 11
-26.77805075256149
 21
-23.10220590466932
 31
0.0
  0
LINE
  5
17F
330
1F
100
AcDbEntity
  8
0
100
AcDbLine
 10
-25.312333850873
 20
-22.49513839686917
 30
0.0
 11
-25.39230256048358
 21
-22.30218866887213
 31
0.0
  0
LINE
  5
180
330
1F
100
AcDbEntity
  8
0
100
AcDbLine
 10
-25.28503345185567
 20
-22.70219838933338
 30
0.0
 11
-25.312333850873
 21
-22.49513839686917
 31
0.0
  0
LINE
  5
181
330
1F
100
AcDbEntity
  8
0
100
AcDbLine
 10
-26.08503476749684
 20
-23.50221121489821
 30
0.0
 11
-25.87794797555982
 21
-23.47495158406249
 31
0.0
  0
LINE
  5
182
330
1F
100
AcDbEntity
  8
0
100
AcDbLine
 10
-26.48512468003826
 20
-23.39503033132175
 30
0.0
 11
-26.29213135903413
 21
-23.47495158406249
 31
0.0
  0
LINE
  5
183
330
1F
100
AcDbEntity
  8
0
100
AcDbLine
 10
-25.87794797555982
 20
-23.47495158406249
 30
0.0
 11
-25.68498338555112
 21
-23.39503033132175
 31
0.0
  0
LINE
  5
184
330
1F
100
AcDbEntity
  8
0
100
AcDbLine
 10
-25.51949000654663
 20
-22.13649857170546
 30
0.0
 11
-25.68522863379954
 21
-22.00935983196914
 31
0.0
  0
LINE
  5
185
330
1F
100
AcDbEntity
  8
0
100
AcDbLine
 10
-25.8782235696156
 20
-21.9294369649646
 30
0.0
 11
-26.08532236673689
 21
-21.90217674326736
 31
0.0
  0
LINE
  5
186
330
1F
100
AcDbEntity
  8
0
100
AcDbLine
 10
-25.39230256048358
 20
-22.30218866887213
 30
0.0
 11
-25.51949000654663
 21
-22.13649857170546
 31
0.0
  0
LINE
  5
187
330
1F
100
AcDbEntity
  8
0
100
AcDbLine
 10
-26.48537756828581
 20
-22.00935983196914
 30
0.0
 11
-26.65107049026727
 21
-22.13649857170546
 31
0.0
  0
LINE
  5
188
330
1F
100
AcDbEntity
  8
0
100
AcDbLine
 10
-26.77805075256149
 20
-23.10220590466932
 30
0.0
 11
-26.65086271593881
 21
-23.26789379671067
 31
0.0
  0
LINE
  5
189
330
1F
100
AcDbEntity
  8
0
100
AcDbLine
 10
-26.88532368079261
 20
-22.70219838933338
 30
0.0
 11
-26.85802107640369
 21
-22.90925779093604
 31
0.0
  0
LINE
  5
18A
330
1F
100
AcDbEntity
  8
0
100
AcDbLine
 10
-26.29241136404549
 20
-21.9294369649646
 30
0.0
 11
-26.48537756828581
 21
-22.00935983196914
 31
0.0
  0
LINE
  5
18B
330
1F
100
AcDbEntity
  8
0
100
AcDbLine
 10
-26.77819837218108
 20
-22.30218866887213
 30
0.0
 11
-26.85809771804216
 21
-22.49513839686917
 31
0.0
  0
LINE
  5
18C
330
1F
100
AcDbEntity
  8
0
100
AcDbLine
 10
-26.64981334660749
 20
-28.98203307249701
 30
0.0
 11
-26.4840818375035
 21
-29.10915959538747
 31
0.0
  0
LINE
  5
18D
330
1F
100
AcDbEntity
  8
0
100
AcDbLine
 10
-26.65107049026727
 20
-22.13649857170546
 30
0.0
 11
-26.77819837218108
 21
-22.30218866887213
 31
0.0
  0
LINE
  5
18E
330
1F
100
AcDbEntity
  8
0
100
AcDbLine
 10
-26.08532236673689
 20
-21.90217674326736
 30
0.0
 11
-26.29241136404549
 21
-21.9294369649646
 31
0.0
  0
LINE
  5
18F
330
1F
100
AcDbEntity
  8
0
100
AcDbLine
 10
-25.68522863379954
 20
-22.00935983196914
 30
0.0
 11
-25.8782235696156
 21
-21.9294369649646
 31
0.0
  0
LINE
  5
190
330
1F
100
AcDbEntity
  8
0
100
AcDbLine
 10
-25.283042342026
 20
-34.13011606322457
 30
0.0
 11
-25.31034058838661
 21
-33.92308868003083
 31
0.0
  0
LINE
  5
191
330
1F
100
AcDbEntity
  8
0
100
AcDbLine
 10
-25.517480426233
 20
-33.56450533611066
 30
0.0
 11
-25.68320600031366
 21
-33.43738661915381
 31
0.0
  0
LINE
  5
192
330
1F
100
AcDbEntity
  8
0
100
AcDbLine
 10
-26.77608967491343
 20
-33.73016933916202
 30
0.0
 11
-26.85598273176896
 21
-33.92308868003083
 31
0.0
  0
LINE
  5
193
330
1F
100
AcDbEntity
  8
0
100
AcDbLine
 10
-26.01926764967411
 20
-16.19029633109885
 30
0.0
 11
-26.22792467464691
 21
-16.20010278637971
 31
0.0
  0
LINE
  5
194
330
1F
100
AcDbEntity
  8
0
100
AcDbLine
 10
-26.85598273176896
 20
-33.92308868003083
 30
0.0
 11
-26.88320655358545
 21
-34.13011606322457
 31
0.0
  0
LINE
  5
195
330
1F
100
AcDbEntity
  8
0
100
AcDbLine
 10
-25.68397204830039
 20
-29.10915959538747
 30
0.0
 11
-25.518286240076
 21
-28.98203307249701
 31
0.0
  0
LINE
  5
196
330
1F
100
AcDbEntity
  8
0
100
AcDbLine
 10
-26.08326822557172
 20
-33.33022041047687
 30
0.0
 11
-26.29034091562968
 21
-33.35747633902161
 31
0.0
  0
LINE
  5
197
330
1F
100
AcDbEntity
  8
0
100
AcDbLine
 10
-26.7432832941184
 20
-16.53084430598069
 30
0.0
 11
-26.83908453067363
 21
-16.71642947199837
 31
0.0
  0
LINE
  5
198
330
1F
100
AcDbEntity
  8
0
100
AcDbLine
 10
-26.48329192550958
 20
-33.43738661915381
 30
0.0
 11
-26.6489718015168
 21
-33.56450533611066
 31
0.0
  0
LINE
  5
199
330
1F
100
AcDbEntity
  8
0
100
AcDbLine
 10
-26.60270289554744
 20
-16.37638356542488
 30
0.0
 11
-26.7432832941184
 21
-16.53084430598069
 31
0.0
  0
LINE
  5
19A
330
1F
100
AcDbEntity
  8
0
100
AcDbLine
 10
-26.42692363536335
 20
-16.2635737216282
 30
0.0
 11
-26.60270289554744
 21
-16.37638356542488
 31
0.0
  0
LINE
  5
19B
330
1F
100
AcDbEntity
  8
0
100
AcDbLine
 10
-26.54285941710983
 20
-17.64447581995837
 30
0.0
 11
-26.35723626331784
 21
-17.740298601858
 31
0.0
  0
LINE
  5
19C
330
1F
100
AcDbEntity
  8
0
100
AcDbLine
 10
-26.15314310870792
 20
-17.78482399057027
 30
0.0
 11
-25.94448835708771
 21
-17.77501774944908
 31
0.0
  0
LINE
  5
19D
330
1F
100
AcDbEntity
  8
0
100
AcDbLine
 10
-25.29867808308099
 20
-16.84600483839162
 30
0.0
 11
-25.36219083910879
 21
-16.64701870913194
 31
0.0
  0
LINE
  5
19E
330
1F
100
AcDbEntity
  8
0
100
AcDbLine
 10
-26.83908453067363
 20
-16.71642947199837
 30
0.0
 11
-26.88357804138367
 21
-16.92049155514376
 31
0.0
  0
LINE
  5
19F
330
1F
100
AcDbEntity
  8
0
100
AcDbLine
 10
-26.81021725691327
 20
-17.32810877389993
 30
0.0
 11
-26.69736279102973
 21
-17.50388562314123
 31
0.0
  0
LINE
  5
1A0
330
1F
100
AcDbEntity
  8
0
100
AcDbLine
 10
-26.29034091562968
 20
-33.35747633902161
 30
0.0
 11
-26.48329192550958
 21
-33.43738661915381
 31
0.0
  0
LINE
  5
1A1
330
1F
100
AcDbEntity
  8
0
100
AcDbLine
 10
-25.87618573724444
 20
-33.35747633902161
 30
0.0
 11
-26.08326822557172
 21
-33.33022041047687
 31
0.0
  0
LINE
  5
1A2
330
1F
100
AcDbEntity
  8
0
100
AcDbLine
 10
-26.35723626331784
 20
-17.740298601858
 30
0.0
 11
-26.15314310870792
 21
-17.78482399057027
 31
0.0
  0
LINE
  5
1A3
330
1F
100
AcDbEntity
  8
0
100
AcDbLine
 10
-26.88357804138367
 20
-16.92049155514376
 30
0.0
 11
-26.87373187442514
 21
-17.12912396666657
 31
0.0
  0
LINE
  5
1A4
330
1F
100
AcDbEntity
  8
0
100
AcDbLine
 10
30.83804671420218
 20
-29.21633203871352
 30
0.0
 11
31.04513604415625
 21
-29.18907455451106
 31
0.0
  0
LINE
  5
1A5
330
1F
100
AcDbEntity
  8
0
100
AcDbLine
 10
30.03810309935483
 20
-28.41638221248672
 30
0.0
 11
30.06532341422898
 21
-28.62342530856095
 31
0.0
  0
LINE
  5
1A6
330
1F
100
AcDbEntity
  8
0
100
AcDbLine
 10
30.27114103419215
 20
-34.69572238112962
 30
0.0
 11
30.43681615536773
 21
-34.82283889348209
 31
0.0
  0
LINE
  5
1A7
330
1F
100
AcDbEntity
  8
0
100
AcDbLine
 10
-25.81517241898607
 20
-16.23482267090202
 30
0.0
 11
-26.01926764967411
 21
-16.19029633109885
 31
0.0
  0
LINE
  5
1A8
330
1F
100
AcDbEntity
  8
0
100
AcDbLine
 10
-25.47504435415995
 20
-16.4712397842335
 30
0.0
 11
-25.62954794267389
 21
-16.33064731429909
 31
0.0
  0
LINE
  5
1A9
330
1F
100
AcDbEntity
  8
0
100
AcDbLine
 10
-25.87692904095687
 20
-29.18907455451106
 30
0.0
 11
-25.68397204830039
 21
-29.10915959538747
 31
0.0
  0
LINE
  5
1AA
330
1F
100
AcDbEntity
  8
0
100
AcDbLine
 10
-26.29109611611409
 20
-29.18907455451106
 30
0.0
 11
-26.08400767912119
 21
-29.21633203871352
 31
0.0
  0
LINE
  5
1AB
330
1F
100
AcDbEntity
  8
0
100
AcDbLine
 10
-25.33332977626321
 20
-17.25869859612857
 30
0.0
 11
-25.28883418947505
 21
-17.05463746407411
 31
0.0
  0
LINE
  5
1AC
330
1F
100
AcDbEntity
  8
0
100
AcDbLine
 10
-25.74549125785534
 20
-17.71154813622692
 30
0.0
 11
-25.56971294850364
 21
-17.59874036808736
 31
0.0
  0
LINE
  5
1AD
330
1F
100
AcDbEntity
  8
0
100
AcDbLine
 10
30.14402799665341
 20
-34.53006058268267
 30
0.0
 11
30.27114103419215
 21
-34.69572238112962
 31
0.0
  0
LINE
  5
1AE
330
1F
100
AcDbEntity
  8
0
100
AcDbLine
 10
-26.87373187442514
 20
-17.12912396666657
 30
0.0
 11
-26.81021725691327
 21
-17.32810877389993
 31
0.0
  0
LINE
  5
1AF
330
1F
100
AcDbEntity
  8
0
100
AcDbLine
 10
30.06540920479825
 20
-28.20933852562077
 30
0.0
 11
30.03810309935483
 21
-28.41638221248672
 31
0.0
  0
LINE
  5
1B0
330
1F
100
AcDbEntity
  8
0
100
AcDbLine
 10
30.43681615536773
 20
-34.82283889348209
 30
0.0
 11
30.62976293344466
 21
-34.90274755973184
 31
0.0
  0
LINE
  5
1B1
330
1F
100
AcDbEntity
  8
0
100
AcDbLine
 10
-26.08400767912119
 20
-29.21633203871352
 30
0.0
 11
-25.87692904095687
 21
-29.18907455451106
 31
0.0
  0
LINE
  5
1B2
330
1F
100
AcDbEntity
  8
0
100
AcDbLine
 10
-25.39116277131202
 20
-28.81635822802343
 30
0.0
 11
-25.31126495539269
 21
-28.62342530856095
 31
0.0
  0
LINE
  5
1B3
330
1F
100
AcDbEntity
  8
0
100
AcDbLine
 10
-26.69736279102973
 20
-17.50388562314123
 30
0.0
 11
-26.54285941710983
 21
-17.64447581995837
 31
0.0
  0
LINE
  5
1B4
330
1F
100
AcDbEntity
  8
0
100
AcDbLine
 10
-26.6489718015168
 20
-33.56450533611066
 30
0.0
 11
-26.77608967491343
 21
-33.73016933916202
 31
0.0
  0
LINE
  5
1B5
330
1F
100
AcDbEntity
  8
0
100
AcDbLine
 10
-25.36219083910879
 20
-16.64701870913194
 30
0.0
 11
-25.47504435415995
 21
-16.4712397842335
 31
0.0
  0
LINE
  5
1B6
330
1F
100
AcDbEntity
  8
0
100
AcDbLine
 10
-25.31034058838661
 20
-33.92308868003083
 30
0.0
 11
-25.39030299806775
 21
-33.73016933916202
 31
0.0
  0
LINE
  5
1B7
330
1F
100
AcDbEntity
  8
0
100
AcDbLine
 10
-26.22792467464691
 20
-16.20010278637971
 30
0.0
 11
-26.42692363536335
 21
-16.2635737216282
 31
0.0
  0
LINE
  5
1B8
330
1F
100
AcDbEntity
  8
0
100
AcDbLine
 10
-25.62954794267389
 20
-16.33064731429909
 30
0.0
 11
-25.81517241898607
 21
-16.23482267090202
 31
0.0
  0
LINE
  5
1B9
330
1F
100
AcDbEntity
  8
0
100
AcDbLine
 10
-25.28883418947505
 20
-17.05463746407411
 30
0.0
 11
-25.29867808308099
 21
-16.84600483839162
 31
0.0
  0
LINE
  5
1BA
330
1F
100
AcDbEntity
  8
0
100
AcDbLine
 10
-25.94448835708771
 20
-17.77501774944908
 30
0.0
 11
-25.74549125785534
 21
-17.71154813622692
 31
0.0
  0
LINE
  5
1BB
330
1F
100
AcDbEntity
  8
0
100
AcDbLine
 10
-25.518286240076
 20
-28.98203307249701
 30
0.0
 11
-25.39116277131202
 21
-28.81635822802343
 31
0.0
  0
LINE
  5
1BC
330
1F
100
AcDbEntity
  8
0
100
AcDbLine
 10
-25.39030299806775
 20
-33.73016933916202
 30
0.0
 11
-25.517480426233
 21
-33.56450533611066
 31
0.0
  0
LINE
  5
1BD
330
1F
100
AcDbEntity
  8
0
100
AcDbLine
 10
-26.4840818375035
 20
-29.10915959538747
 30
0.0
 11
-26.29109611611409
 21
-29.18907455451106
 31
0.0
  0
LINE
  5
1BE
330
1F
100
AcDbEntity
  8
0
100
AcDbLine
 10
-25.31026836907911
 20
-34.33714285569629
 30
0.0
 11
-25.283042342026
 21
-34.13011606322457
 31
0.0
  0
LINE
  5
1BF
330
1F
100
AcDbEntity
  8
0
100
AcDbLine
 10
19.92518876146736
 20
-7.96463332231863
 30
0.0
 11
20.11817704117727
 21
-8.044571571539917
 31
0.0
  0
LINE
  5
1C0
330
1F
100
AcDbEntity
  8
0
100
AcDbLine
 10
-16.34607959150612
 20
-1.355558970743937
 30
0.0
 11
-16.37148358261441
 21
-1.562913335108571
 31
0.0
  0
LINE
  5
1C1
330
1F
100
AcDbEntity
  8
0
100
AcDbLine
 10
19.7610301613862
 20
3.594589699932888
 30
0.0
 11
19.92675820840482
 21
3.467406094389225
 31
0.0
  0
LINE
  5
1C2
330
1F
100
AcDbEntity
  8
0
100
AcDbLine
 10
20.32688789433201
 20
3.360185528277057
 30
0.0
 11
20.53402173811707
 21
3.387455251686567
 31
0.0
  0
LINE
  5
1C3
330
1F
100
AcDbEntity
  8
0
100
AcDbLine
 10
-28.83105352788244
 20
-10.01510174325489
 30
0.0
 11
-19.68573849090252
 21
-10.01510174325489
 31
0.0
  0
LINE
  5
1C4
330
1F
100
AcDbEntity
  8
0
100
AcDbLine
 10
19.52670674703828
 20
4.160494550441985
 30
0.0
 11
19.55394817282284
 21
3.953358487048239
 31
0.0
  0
LINE
  5
1C5
330
1F
100
AcDbEntity
  8
0
100
AcDbLine
 10
19.5251688011212
 20
-7.271654038596202
 30
0.0
 11
19.5524080835373
 21
-7.47875747474823
 31
0.0
  0
LINE
  5
1C6
330
1F
100
AcDbEntity
  8
0
100
AcDbLine
 10
-16.26787232034783
 20
-1.161850496561882
 30
0.0
 11
-16.34607959150612
 21
-1.355558970743937
 31
0.0
  0
LINE
  5
1C7
330
1F
100
AcDbEntity
  8
0
100
AcDbLine
 10
-39.34240243489172
 20
-31.27330538108561
 30
0.0
 11
-30.19842692607378
 21
-31.27330538108561
 31
0.0
  0
LINE
  5
1C8
330
1F
100
AcDbEntity
  8
0
100
AcDbLine
 10
19.92675820840482
 20
3.467406094389225
 30
0.0
 11
20.11976168834578
 21
3.387455251686567
 31
0.0
  0
LINE
  5
1C9
330
1F
100
AcDbEntity
  8
0
100
AcDbLine
 10
-15.56405986077339
 20
-2.356019271127566
 30
0.0
 11
-15.35719150084683
 21
-2.326912980830451
 31
0.0
  0
LINE
  5
1CA
330
1F
100
AcDbEntity
  8
0
100
AcDbLine
 10
-25.68296079068864
 20
-34.82283889348209
 30
0.0
 11
-25.51728150514808
 21
-34.69572238112962
 31
0.0
  0
LINE
  5
1CB
330
1F
100
AcDbEntity
  8
0
100
AcDbLine
 10
19.63387158078699
 20
3.760338936193623
 30
0.0
 11
19.7610301613862
 21
3.594589699932888
 31
0.0
  0
LINE
  5
1CC
330
1F
100
AcDbEntity
  8
0
100
AcDbLine
 10
-26.29006095471545
 20
-34.90274755973184
 30
0.0
 11
-26.0829806716248
 21
-34.93000289755463
 31
0.0
  0
LINE
  5
1CD
330
1F
100
AcDbEntity
  8
0
100
AcDbLine
 10
-26.0829806716248
 20
-34.93000289755463
 30
0.0
 11
-25.87591018659112
 21
-34.90274755973184
 31
0.0
  0
LINE
  5
1CE
330
1F
100
AcDbEntity
  8
0
100
AcDbLine
 10
20.11976168834578
 20
3.387455251686567
 30
0.0
 11
20.32688789433201
 21
3.360185528277057
 31
0.0
  0
LINE
  5
1CF
330
1F
100
AcDbEntity
  8
0
100
AcDbLine
 10
-25.39016304049226
 20
-34.53006058268267
 30
0.0
 11
-25.31026836907911
 21
-34.33714285569629
 31
0.0
  0
LINE
  5
1D0
330
1F
100
AcDbEntity
  8
0
100
AcDbLine
 10
-26.88320655358545
 20
-34.13011606322457
 30
0.0
 11
-26.85590610220056
 21
-34.33714285569629
 31
0.0
  0
LINE
  5
1D1
330
1F
100
AcDbEntity
  8
0
100
AcDbLine
 10
-25.51728150514808
 20
-34.69572238112962
 30
0.0
 11
-25.39016304049226
 21
-34.53006058268267
 31
0.0
  0
LINE
  5
1D2
330
1F
100
AcDbEntity
  8
0
100
AcDbLine
 10
-26.64876405991009
 20
-34.69572238112962
 30
0.0
 11
-26.48303907708863
 21
-34.82283889348209
 31
0.0
  0
LINE
  5
1D3
330
1F
100
AcDbEntity
  8
0
100
AcDbLine
 10
19.75947376595466
 20
-7.837469750153698
 30
0.0
 11
19.92518876146736
 21
-7.96463332231863
 31
0.0
  0
LINE
  5
1D4
330
1F
100
AcDbEntity
  8
0
100
AcDbLine
 10
20.11817704117727
 20
-8.044571571539917
 30
0.0
 11
20.32528693405255
 21
-8.071836999552197
 31
0.0
  0
LINE
  5
1D5
330
1F
100
AcDbEntity
  8
0
100
AcDbLine
 10
-15.01049165969129
 20
-0.9849359958903668
 30
0.0
 11
-15.17736823303572
 21
-0.8592374388459115
 31
0.0
  0
LINE
  5
1D6
330
1F
100
AcDbEntity
  8
0
100
AcDbLine
 10
-16.37148358261441
 20
-1.562913335108571
 30
0.0
 11
-16.3423532750742
 21
-1.769782677267266
 31
0.0
  0
LINE
  5
1D7
330
1F
100
AcDbEntity
  8
0
100
AcDbLine
 10
-16.13201243014393
 20
-2.126669224029023
 30
0.0
 11
-15.96513648726154
 21
-2.252365585833407
 31
0.0
  0
LINE
  5
1D8
330
1F
100
AcDbEntity
  8
0
100
AcDbLine
 10
19.5524080835373
 20
-7.47875747474823
 30
0.0
 11
19.63232519870698
 21
-7.671746621979457
 31
0.0
  0
LINE
  5
1D9
330
1F
100
AcDbEntity
  8
0
100
AcDbLine
 10
-14.80015295223754
 20
-1.341826402299061
 30
0.0
 11
-14.88183057093578
 21
-1.149538179780994
 31
0.0
  0
LINE
  5
1DA
330
1F
100
AcDbEntity
  8
0
100
AcDbLine
 10
-15.17736823303572
 20
-0.8592374388459115
 30
0.0
 11
-15.37108786528966
 21
-0.7810088768912044
 31
0.0
  0
LINE
  5
1DB
330
1F
100
AcDbEntity
  8
0
100
AcDbLine
 10
-14.88183057093578
 20
-1.149538179780994
 30
0.0
 11
-15.01049165969129
 21
-0.9849359958903668
 31
0.0
  0
LINE
  5
1DC
330
1F
100
AcDbEntity
  8
0
100
AcDbLine
 10
-15.37108786528966
 20
-0.7810088768912044
 30
0.0
 11
-15.57844871945473
 21
-0.7555816156913783
 31
0.0
  0
LINE
  5
1DD
330
1F
100
AcDbEntity
  8
0
100
AcDbLine
 10
20.53402173811707
 20
3.387455251686567
 30
0.0
 11
20.72704761096762
 21
3.467406094389225
 31
0.0
  0
LINE
  5
1DE
330
1F
100
AcDbEntity
  8
0
100
AcDbLine
 10
-25.87591018659112
 20
-34.90274755973184
 30
0.0
 11
-25.68296079068864
 21
-34.82283889348209
 31
0.0
  0
LINE
  5
1DF
330
1F
100
AcDbEntity
  8
0
100
AcDbLine
 10
-15.78531927458474
 20
-0.78468853620615
 30
0.0
 11
-15.97760142491338
 21
-0.8663459869438683
 31
0.0
  0
LINE
  5
1E0
330
1F
100
AcDbEntity
  8
0
100
AcDbLine
 10
-26.77594207854199
 20
-34.53006058268267
 30
0.0
 11
-26.64876405991009
 21
-34.69572238112962
 31
0.0
  0
LINE
  5
1E1
330
1F
100
AcDbEntity
  8
0
100
AcDbLine
 10
20.32528693405255
 20
-8.071836999552197
 30
0.0
 11
20.53240446352359
 21
-8.044571571539917
 31
0.0
  0
LINE
  5
1E2
330
1F
100
AcDbEntity
  8
0
100
AcDbLine
 10
-26.85590610220056
 20
-34.33714285569629
 30
0.0
 11
-26.77594207854199
 21
-34.53006058268267
 31
0.0
  0
LINE
  5
1E3
330
1F
100
AcDbEntity
  8
0
100
AcDbLine
 10
19.63232519870698
 20
-7.671746621979457
 30
0.0
 11
19.75947376595466
 21
-7.837469750153698
 31
0.0
  0
LINE
  5
1E4
330
1F
100
AcDbEntity
  8
0
100
AcDbLine
 10
-15.77141849860548
 20
-2.330592561763297
 30
0.0
 11
-15.56405986077339
 21
-2.356019271127566
 31
0.0
  0
LINE
  5
1E5
330
1F
100
AcDbEntity
  8
0
100
AcDbLine
 10
-26.48303907708863
 20
-34.82283889348209
 30
0.0
 11
-26.29006095471545
 21
-34.90274755973184
 31
0.0
  0
LINE
  5
1E6
330
1F
100
AcDbEntity
  8
0
100
AcDbLine
 10
-15.35719150084683
 20
-2.326912980830451
 30
0.0
 11
-15.16491093638911
 21
-2.245257173497208
 31
0.0
  0
LINE
  5
1E7
330
1F
100
AcDbEntity
  8
0
100
AcDbLine
 10
-16.14219130122702
 20
-0.9949889834030723
 30
0.0
 11
-16.26787232034783
 21
-1.161850496561882
 31
0.0
  0
LINE
  5
1E8
330
1F
100
AcDbEntity
  8
0
100
AcDbLine
 10
-16.26067407050503
 20
-1.962069256380859
 30
0.0
 11
-16.13201243014393
 21
-2.126669224029023
 31
0.0
  0
LINE
  5
1E9
330
1F
100
AcDbEntity
  8
0
100
AcDbLine
 10
19.55394817282284
 20
3.953358487048239
 30
0.0
 11
19.63387158078699
 21
3.760338936193623
 31
0.0
  0
LINE
  5
1EA
330
1F
100
AcDbEntity
  8
0
100
AcDbLine
 10
19.92597345403216
 20
-2.248838721903144
 30
0.0
 11
20.1189693335583
 21
-2.328783267493182
 31
0.0
  0
LINE
  5
1EB
330
1F
100
AcDbEntity
  8
0
100
AcDbLine
 10
19.55317809785411
 20
-1.762924604049336
 30
0.0
 11
19.63309835929716
 21
-1.955928952194241
 31
0.0
  0
LINE
  5
1EC
330
1F
100
AcDbEntity
  8
0
100
AcDbLine
 10
19.63309835929716
 20
-1.955928952194241
 30
0.0
 11
19.76025193302346
 21
-2.121665133640587
 31
0.0
  0
LINE
  5
1ED
330
1F
100
AcDbEntity
  8
0
100
AcDbLine
 10
19.92616374117752
 20
-0.8627643703089135
 30
0.0
 11
19.76040600951154
 21
-0.9899401646608904
 31
0.0
  0
LINE
  5
1EE
330
1F
100
AcDbEntity
  8
0
100
AcDbLine
 10
21.09922300935948
 20
-1.348684515311058
 30
0.0
 11
21.01930436313492
 21
-1.155678552196631
 31
0.0
  0
LINE
  5
1EF
330
1F
100
AcDbEntity
  8
0
100
AcDbLine
 10
19.52593774379594
 20
-1.55580485524012
 30
0.0
 11
19.55317809785411
 21
-1.762924604049336
 31
0.0
  0
LINE
  5
1F0
330
1F
100
AcDbEntity
  8
0
100
AcDbLine
 10
21.01918847356686
 20
-1.955928952194241
 30
0.0
 11
21.09916279233782
 21
-1.762924604049336
 31
0.0
  0
LINE
  5
1F1
330
1F
100
AcDbEntity
  8
0
100
AcDbLine
 10
19.76025193302346
 20
-2.121665133640587
 30
0.0
 11
19.92597345403216
 21
-2.248838721903144
 31
0.0
  0
LINE
  5
1F2
330
1F
100
AcDbEntity
  8
0
100
AcDbLine
 10
19.63320660663941
 20
-1.155678552196631
 30
0.0
 11
19.55323390263465
 21
-1.348684515311058
 31
0.0
  0
LINE
  5
1F3
330
1F
100
AcDbEntity
  8
0
100
AcDbLine
 10
20.32608738266784
 20
-2.356050843077174
 30
0.0
 11
20.53321306897465
 21
-2.328783267493182
 31
0.0
  0
LINE
  5
1F4
330
1F
100
AcDbEntity
  8
0
100
AcDbLine
 10
20.53343177472552
 20
-0.7828182097493784
 30
0.0
 11
20.32631151957816
 21
-0.7555500430454761
 31
0.0
  0
LINE
  5
1F5
330
1F
100
AcDbEntity
  8
0
100
AcDbLine
 10
20.72623133964667
 20
-2.248838721903144
 30
0.0
 11
20.89198847987548
 21
-2.121665133640587
 31
0.0
  0
LINE
  5
1F6
330
1F
100
AcDbEntity
  8
0
100
AcDbLine
 10
20.89215138084581
 20
-0.9899401646608904
 30
0.0
 11
20.72642926901784
 21
-0.8627643703089135
 31
0.0
  0
LINE
  5
1F7
330
1F
100
AcDbEntity
  8
0
100
AcDbLine
 10
20.11918362706804
 20
-0.7828182097493784
 30
0.0
 11
19.92616374117752
 21
-0.8627643703089135
 31
0.0
  0
LINE
  5
1F8
330
1F
100
AcDbEntity
  8
0
100
AcDbLine
 10
20.53321306897465
 20
-2.328783267493182
 30
0.0
 11
20.72623133964667
 21
-2.248838721903144
 31
0.0
  0
LINE
  5
1F9
330
1F
100
AcDbEntity
  8
0
100
AcDbLine
 10
19.76040600951154
 20
-0.9899401646608904
 30
0.0
 11
19.63320660663941
 21
-1.155678552196631
 31
0.0
  0
LINE
  5
1FA
330
1F
100
AcDbEntity
  8
0
100
AcDbLine
 10
30.84047537830347
 20
-17.78764037295289
 30
0.0
 11
31.04758101812923
 21
-17.76037859523035
 31
0.0
  0
LINE
  5
1FB
330
1F
100
AcDbEntity
  8
0
100
AcDbLine
 10
30.04046877658221
 20
-16.98756454060755
 30
0.0
 11
30.06769123183768
 21
-17.19464024966494
 31
0.0
  0
LINE
  5
1FC
330
1F
100
AcDbEntity
  8
0
100
AcDbLine
 10
30.63338132505345
 20
-17.76037859523035
 30
0.0
 11
30.84047537830347
 21
-17.78764037295289
 31
0.0
  0
LINE
  5
1FD
330
1F
100
AcDbEntity
  8
0
100
AcDbLine
 10
-15.16550818351932
 20
3.47098792490847
 30
0.0
 11
-15.00091237723274
 21
3.599638837975212
 31
0.0
  0
LINE
  5
1FE
330
1F
100
AcDbEntity
  8
0
100
AcDbLine
 10
-15.81254187750664
 20
-8.0343753252533
 30
0.0
 11
-15.60687522008037
 21
-8.071012395068214
 31
0.0
  0
LINE
  5
1FF
330
1F
100
AcDbEntity
  8
0
100
AcDbLine
 10
31.64082202165137
 20
-16.98756454060755
 30
0.0
 11
31.61360177217293
 21
-16.78048824061884
 31
0.0
  0
LINE
  5
200
330
1F
100
AcDbEntity
  8
0
100
AcDbLine
 10
31.04791168058066
 20
-16.21474225537288
 30
0.0
 11
30.84081542180476
 21
-16.18747988671897
 31
0.0
  0
LINE
  5
201
330
1F
100
AcDbEntity
  8
0
100
AcDbLine
 10
31.53370560301129
 20
-16.5875233163653
 30
0.0
 11
31.40657814471949
 21
-16.42182016982897
 31
0.0
  0
LINE
  5
202
330
1F
100
AcDbEntity
  8
0
100
AcDbLine
 10
-14.79701378441213
 20
3.960233445382614
 30
0.0
 11
-14.77160657721347
 21
4.167603590933974
 31
0.0
  0
LINE
  5
203
330
1F
100
AcDbEntity
  8
0
100
AcDbLine
 10
-15.20231802162104
 20
-7.98207811111318
 30
0.0
 11
-15.03099698501209
 21
-7.862567296982353
 31
0.0
  0
LINE
  5
204
330
1F
100
AcDbEntity
  8
0
100
AcDbLine
 10
-15.74254463879229
 20
-6.49012485816651
 30
0.0
 11
-15.93896767513499
 21
-6.561223011225622
 31
0.0
  0
LINE
  5
205
330
1F
100
AcDbEntity
  8
0
100
AcDbLine
 10
-14.87707651329795
 20
-12.5869897737107
 30
0.0
 11
-15.00426046761755
 21
-12.42127749169833
 31
0.0
  0
LINE
  5
206
330
1F
100
AcDbEntity
  8
0
100
AcDbLine
 10
-15.00426046761755
 20
-12.42127749169833
 30
0.0
 11
-15.17000097745104
 21
-12.29412172887961
 31
0.0
  0
LINE
  5
207
330
1F
100
AcDbEntity
  8
0
100
AcDbLine
 10
-16.11028950019715
 20
-6.680735968500472
 30
0.0
 11
-16.24483473595732
 21
-6.840518905353906
 31
0.0
  0
LINE
  5
208
330
1F
100
AcDbEntity
  8
0
100
AcDbLine
 10
-15.36300304188504
 20
-12.21418816069526
 30
0.0
 11
-15.57011372784813
 21
-12.18692428902079
 31
0.0
  0
LINE
  5
209
330
1F
100
AcDbEntity
  8
0
100
AcDbLine
 10
-16.281065305004
 20
-7.639882010832648
 30
0.0
 11
-16.16152824979157
 21
-7.811206023628046
 31
0.0
  0
LINE
  5
20A
330
1F
100
AcDbEntity
  8
0
100
AcDbLine
 10
-16.0017236470458
 20
-7.945760270008878
 30
0.0
 11
-15.81254187750664
 21
-8.0343753252533
 31
0.0
  0
LINE
  5
20B
330
1F
100
AcDbEntity
  8
0
100
AcDbLine
 10
-15.60687522008037
 20
-8.071012395068214
 30
0.0
 11
-15.39873930347157
 21
-8.053174802475644
 31
0.0
  0
LINE
  5
20C
330
1F
100
AcDbEntity
  8
0
100
AcDbLine
 10
-15.39873930347157
 20
-8.053174802475644
 30
0.0
 11
-15.20231802162104
 21
-7.98207811111318
 31
0.0
  0
LINE
  5
20D
330
1F
100
AcDbEntity
  8
0
100
AcDbLine
 10
-25.68320600031366
 20
-33.43738661915381
 30
0.0
 11
-25.87618573724444
 21
-33.35747633902161
 31
0.0
  0
LINE
  5
20E
330
1F
100
AcDbEntity
  8
0
100
AcDbLine
 10
-15.17796597648598
 20
4.857116834821781
 30
0.0
 11
-15.37169323849442
 21
4.935351558786057
 31
0.0
  0
LINE
  5
20F
330
1F
100
AcDbEntity
  8
0
100
AcDbLine
 10
-14.8752257785369
 20
3.766511299176798
 30
0.0
 11
-14.79701378441213
 21
3.960233445382614
 31
0.0
  0
LINE
  5
210
330
1F
100
AcDbEntity
  8
0
100
AcDbLine
 10
-25.31126495539269
 20
-28.62342530856095
 30
0.0
 11
-25.28403785774102
 21
-28.41638221248672
 31
0.0
  0
LINE
  5
211
330
1F
100
AcDbEntity
  8
0
100
AcDbLine
 10
31.40633328635086
 20
-17.55330450061452
 30
0.0
 11
31.53353176096023
 21
-17.38760355946402
 31
0.0
  0
LINE
  5
212
330
1F
100
AcDbEntity
  8
0
100
AcDbLine
 10
30.14758901599136
 20
-17.38760355946402
 30
0.0
 11
30.27471706575433
 21
-17.55330450061452
 31
0.0
  0
LINE
  5
213
330
1F
100
AcDbEntity
  8
0
100
AcDbLine
 10
-14.76982920916466
 20
-12.98705305281415
 30
0.0
 11
-14.79711643177445
 21
-12.77996533641198
 31
0.0
  0
LINE
  5
214
330
1F
100
AcDbEntity
  8
0
100
AcDbLine
 10
-14.79711643177445
 20
-12.77996533641198
 30
0.0
 11
-14.87707651329795
 21
-12.5869897737107
 31
0.0
  0
LINE
  5
215
330
1F
100
AcDbEntity
  8
0
100
AcDbLine
 10
-15.00091237723274
 20
3.599638837975212
 30
0.0
 11
-14.8752257785369
 21
3.766511299176798
 31
0.0
  0
LINE
  5
216
330
1F
100
AcDbEntity
  8
0
100
AcDbLine
 10
-15.17000097745104
 20
-12.29412172887961
 30
0.0
 11
-15.36300304188504
 21
-12.21418816069526
 31
0.0
  0
LINE
  5
217
330
1F
100
AcDbEntity
  8
0
100
AcDbLine
 10
30.44041175553833
 20
-17.68045104812889
 30
0.0
 11
30.63338132505345
 21
-17.76037859523035
 31
0.0
  0
LINE
  5
218
330
1F
100
AcDbEntity
  8
0
100
AcDbLine
 10
-14.77160657721347
 20
4.167603590933974
 30
0.0
 11
-14.80073583755328
 21
4.374489858244291
 31
0.0
  0
LINE
  5
219
330
1F
100
AcDbEntity
  8
0
100
AcDbLine
 10
-16.3521884811502
 20
-7.443463465868018
 30
0.0
 11
-16.281065305004
 21
-7.639882010832648
 31
0.0
  0
LINE
  5
21A
330
1F
100
AcDbEntity
  8
0
100
AcDbLine
 10
31.61360177217293
 20
-16.78048824061884
 30
0.0
 11
31.53370560301129
 21
-16.5875233163653
 31
0.0
  0
LINE
  5
21B
330
1F
100
AcDbEntity
  8
0
100
AcDbLine
 10
-16.24483473595732
 20
-6.840518905353906
 30
0.0
 11
-16.33343438579341
 21
-7.029682653882331
 31
0.0
  0
LINE
  5
21C
330
1F
100
AcDbEntity
  8
0
100
AcDbLine
 10
31.40657814471949
 20
-16.42182016982897
 30
0.0
 11
31.24088286440164
 21
-16.29467141692878
 31
0.0
  0
LINE
  5
21D
330
1F
100
AcDbEntity
  8
0
100
AcDbLine
 10
-16.16152824979157
 20
-7.811206023628046
 30
0.0
 11
-16.0017236470458
 21
-7.945760270008878
 31
0.0
  0
LINE
  5
21E
330
1F
100
AcDbEntity
  8
0
100
AcDbLine
 10
-16.33343438579341
 20
-7.029682653882331
 30
0.0
 11
-16.37005067604001
 21
-7.235335841951161
 31
0.0
  0
LINE
  5
21F
330
1F
100
AcDbEntity
  8
0
100
AcDbLine
 10
-16.37005067604001
 20
-7.235335841951161
 30
0.0
 11
-16.3521884811502
 21
-7.443463465868018
 31
0.0
  0
LINE
  5
220
330
1F
100
AcDbEntity
  8
0
100
AcDbLine
 10
-14.80073583755328
 20
4.374489858244291
 30
0.0
 11
-14.88241667379779
 21
4.566793227127832
 31
0.0
  0
LINE
  5
221
330
1F
100
AcDbEntity
  8
0
100
AcDbLine
 10
-14.88241667379779
 20
4.566793227127832
 30
0.0
 11
-15.01108283038481
 21
4.731408376596192
 31
0.0
  0
LINE
  5
222
330
1F
100
AcDbEntity
  8
0
100
AcDbLine
 10
-15.93896767513499
 20
-6.561223011225622
 30
0.0
 11
-16.11028950019715
 21
-6.680735968500472
 31
0.0
  0
LINE
  5
223
330
1F
100
AcDbEntity
  8
0
100
AcDbLine
 10
31.24088286440164
 20
-16.29467141692878
 30
0.0
 11
31.04791168058066
 21
-16.21474225537288
 31
0.0
  0
LINE
  5
224
330
1F
100
AcDbEntity
  8
0
100
AcDbLine
 10
30.63370757620193
 20
-16.21474225537288
 30
0.0
 11
30.44070242154841
 21
-16.29467141692878
 31
0.0
  0
LINE
  5
225
330
1F
100
AcDbEntity
  8
0
100
AcDbLine
 10
31.61351155678716
 20
-17.19464024966494
 30
0.0
 11
31.64082202165137
 21
-16.98756454060755
 31
0.0
  0
LINE
  5
226
330
1F
100
AcDbEntity
  8
0
100
AcDbLine
 10
30.27471706575433
 20
-17.55330450061452
 30
0.0
 11
30.44041175553833
 21
-17.68045104812889
 31
0.0
  0
LINE
  5
227
330
1F
100
AcDbEntity
  8
0
100
AcDbLine
 10
-15.01108283038481
 20
4.731408376596192
 30
0.0
 11
-15.17796597648598
 21
4.857116834821781
 31
0.0
  0
LINE
  5
228
330
1F
100
AcDbEntity
  8
0
100
AcDbLine
 10
34.9523985742541
 20
-31.27330538108561
 30
0.0
 11
44.09637408307203
 21
-31.27330538108561
 31
0.0
  0
LINE
  5
229
330
1F
100
AcDbEntity
  8
0
100
AcDbLine
 10
45.46687837778154
 20
-34.75859931827193
 30
0.0
 11
48.09570819686216
 21
-34.75859931827193
 31
0.0
  0
LINE
  5
22A
330
1F
100
AcDbEntity
  8
0
100
AcDbLine
 10
48.07259749898653
 20
-104.4864171344362
 30
0.0
 11
48.09570819686216
 21
-34.75859931827193
 31
0.0
  0
LINE
  5
22B
330
1F
100
AcDbEntity
  8
0
100
AcDbLine
 10
24.44040656252555
 20
-10.01510174325489
 30
0.0
 11
33.58572159950546
 21
-10.01510174325489
 31
0.0
  0
LINE
  5
22C
330
1F
100
AcDbEntity
  8
0
100
AcDbLine
 10
-41.03553781453678
 20
-106.769569156778
 30
0.0
 11
45.78703618845434
 21
-106.769569156778
 31
0.0
  0
LINE
  5
22D
330
1F
100
AcDbEntity
  8
0
100
AcDbLine
 10
-28.8271030093958
 20
-29.90199629887739
 30
0.0
 11
-28.83105352788244
 21
-10.01510174325489
 31
0.0
  0
LINE
  5
22E
330
1F
100
AcDbEntity
  8
0
100
AcDbLine
 10
-18.31411432497261
 20
-8.643390855429113
 30
0.0
 11
-18.31604738131033
 21
6.675808933081489
 31
0.0
  0
LINE
  5
22F
330
1F
100
AcDbEntity
  8
0
100
AcDbLine
 10
-39.3418292872475
 20
-33.38735610669519
 30
0.0
 11
-39.34240243489172
 21
-31.27330538108561
 31
0.0
  0
ENDSEC
  0
SECTION
  2
OBJECTS
  0
DICTIONARY
  5
C
330
0
100
AcDbDictionary
  3
ACAD_GROUP
350
D
  3
ACAD_LAYOUT
350
1A
  3
ACAD_MATERIAL
350
43
  3
ACAD_MLEADERSTYLE
350
6B
  3
ACAD_MLINESTYLE
350
17
  3
ACAD_PLOTSETTINGS
350
19
  3
ACAD_SCALELIST
350
47
  3
ACAD_VISUALSTYLE
350
2A
  3
ACDBHEADERROUNDTRIPXREC
350
230
  3
ACDBVARIABLEDICTIONARY
350
251
  0
DICTIONARY
  5
258
330
8
100
AcDbDictionary
280
     1
  3
ACAD_XREC_ROUNDTRIP
360
259
  0
DICTIONARY
  5
D
102
{ACAD_REACTORS
330
C
102
}
330
C
100
AcDbDictionary
  0
DICTIONARY
  5
1A
102
{ACAD_REACTORS
330
C
102
}
330
C
100
AcDbDictionary
  0
DICTIONARY
  5
43
102
{ACAD_REACTORS
330
C
102
}
330
C
100
AcDbDictionary
  3
BYBLOCK
350
45
  3
BYLAYER
350
44
  3
GLOBAL
350
46
  0
DICTIONARY
  5
6B
102
{ACAD_REACTORS
330
C
102
}
330
C
100
AcDbDictionary
  3
STANDARD
350
6C
  0
DICTIONARY
  5
17
102
{ACAD_REACTORS
330
C
102
}
330
C
100
AcDbDictionary
  3
STANDARD
350
18
  0
DICTIONARY
  5
19
102
{ACAD_REACTORS
330
C
102
}
330
C
100
AcDbDictionary
  0
DICTIONARY
  5
47
102
{ACAD_REACTORS
330
C
102
}
330
C
100
AcDbDictionary
  3
A0
350
48
  3
A1
350
49
  3
A2
350
4A
  3
A3
350
4B
  3
A4
350
4C
  3
A5
350
4D
  3
A6
350
4E
  3
A7
350
4F
  3
A8
350
50
  3
A9
350
51
  3
B0
350
52
  3
B1
350
53
  3
B2
350
54
  3
B3
350
55
  3
B4
350
56
  3
B5
350
57
  3
B6
350
58
  3
B7
350
59
  3
B8
350
5A
  3
B9
350
5B
  3
C0
350
5C
  3
C1
350
5D
  3
C2
350
5E
  3
C3
350
5F
  3
C4
350
60
  3
C5
350
61
  3
C6
350
62
  3
C7
350
63
  3
C8
350
64
  3
C9
350
65
  3
D0
350
66
  3
D1
350
67
  3
D2
350
68
  0
DICTIONARY
  5
2A
102
{ACAD_REACTORS
330
C
102
}
330
C
100
AcDbDictionary
  3
2DWIREFRAME
350
2F
  3
BASIC
350
32
  3
BRIGHTEN
350
36
  3
COLORCHANGE
350
3A
  3
CONCEPTUAL
350
34
  3
DIM
350
35
  3
EDGECOLOROFF
350
3D
  3
FACEPATTERN
350
39
  3
FLAT
350
2B
  3
FLATWITHEDGES
350
2C
  3
GOURAUD
350
2D
  3
GOURAUDWITHEDGES
350
2E
  3
HIDDEN
350
31
  3
JITTEROFF
350
3B
  3
LINEPATTERN
350
38
  3
OVERHANGOFF
350
3C
  3
REALISTIC
350
33
  3
SHADED
350
42
  3
SHADED_WITH_EDGES
350
41
  3
SHADES_OF_GRAY
350
3E
  3
SKETCHY
350
3F
  3
THICKEN
350
37
  3
WIREFRAME
350
30
  3
X-RAY
350
40
  0
DICTIONARY
  5
230
102
{ACAD_REACTORS
330
C
102
}
330
C
100
AcDbDictionary
  3
CEPSNID
350
23A
  3
CEPSNTYPE
350
239
  3
DIMSTYLEDATA
350
250
  3
FINGERPRINTGUID
350
23B
  3
HYPERLINKBASE
350
233
  3
INSUNITS
350
238
  3
LAYOUTDICT
350
235
  3
LWETCUNION
350
237
  3
PLOTSETDICT
350
236
  3
PSVPSCALE
350
23D
  3
PUCSBASE
350
240
  3
PUCSORGBACK
350
246
  3
PUCSORGBOTTOM
350
242
  3
PUCSORGFRONT
350
245
  3
PUCSORGLEFT
350
243
  3
PUCSORGRIGHT
350
244
  3
PUCSORGTOP
350
241
  3
PUCSORTHOREF
350
23E
  3
PUCSORTHOVIEW
350
23F
  3
STYLESHEET
350
234
  3
TSTACKALIGN
350
231
  3
TSTACKSIZE
350
232
  3
UCSBASE
350
249
  3
UCSORGBACK
350
24F
  3
UCSORGBOTTOM
350
24B
  3
UCSORGFRONT
350
24E
  3
UCSORGLEFT
350
24C
  3
UCSORGRIGHT
350
24D
  3
UCSORGTOP
350
24A
  3
UCSORTHOREF
350
247
  3
UCSORTHOVIEW
350
248
  3
VERSIONGUID
350
23C
  0
DICTIONARY
  5
251
102
{ACAD_REACTORS
330
C
102
}
330
C
100
AcDbDictionary
  3
CANNOSCALE
350
25A
  3
CMLEADERSTYLE
350
253
  3
CTABLESTYLE
350
252
  3
DIMASSOC
350
256
  3
HIDETEXT
350
257
  3
MSLTSCALE
350
25B
  0
XRECORD
  5
259
102
{ACAD_REACTORS
330
258
102
}
330
258
100
AcDbXrecord
102
VTR_0.000_0.000_1.000_1.000_VISUALSTYLE
340
2F
102
VTR_0.000_0.000_1.000_1.000_GRIDDISPLAY
 70
     3
102
VTR_0.000_0.000_1.000_1.000_GRIDMAJOR
 70
     5
102
VTR_0.000_0.000_1.000_1.000_DEFAULTLIGHTING
280
     1
102
VTR_0.000_0.000_1.000_1.000_DEFAULTLIGHTINGTYPE
 70
     1
102
VTR_0.000_0.000_1.000_1.000_BRIGHTNESS
141
0.0
102
VTR_0.000_0.000_1.000_1.000_CONTRAST
142
0.0
  0
MATERIAL
  5
45
102
{ACAD_REACTORS
330
43
102
}
102
{ACAD_XDICTIONARY
360
25E
102
}
330
43
100
AcDbMaterial
  1
BYBLOCK
  0
MATERIAL
  5
44
102
{ACAD_REACTORS
330
43
102
}
102
{ACAD_XDICTIONARY
360
25C
102
}
330
43
100
AcDbMaterial
  1
BYLAYER
  0
MATERIAL
  5
46
102
{ACAD_REACTORS
330
43
102
}
102
{ACAD_XDICTIONARY
360
260
102
}
330
43
100
AcDbMaterial
  1
GLOBAL
  0
ACAD_PROXY_OBJECT
  5
6C
102
{ACAD_REACTORS
330
6B
102
}
330
6B
100
AcDbProxyObject
 90
      499
 91
      505
 93
      610
310
40901902A4063FBFFFFFE056BD1B81E855B9FC0AD7A3703D0AD73F4214DD185B99185C9900AD7A3703D0AC73F90141901A02B5E8DC0F42B1CFC02B5E8DC0F42B1CFE5764000000000000300FC0
340
14
340
0
340
11
340
0
 94
        0
1001
ACAD_MLEADERVER
1070
     2
  0
MLINESTYLE
  5
18
102
{ACAD_REACTORS
330
17
102
}
330
17
100
AcDbMlineStyle
  2
Standard
 70
     0
  3

 62
   256
 51
90.0
 52
90.0
 71
     2
 49
0.5
 62
   256
  6
BYLAYER
 49
-0.5
 62
   256
  6
BYLAYER
  0
ACAD_PROXY_OBJECT
  5
48
102
{ACAD_REACTORS
330
47
102
}
330
47
100
AcDbProxyObject
 90
      499
 91
      503
 93
       41
310
903313A31580
  0
ACAD_PROXY_OBJECT
  5
49
102
{ACAD_REACTORS
330
47
102
}
330
47
100
AcDbProxyObject
 90
      499
 91
      503
 93
      105
310
903313A324000000000000004000
  0
ACAD_PROXY_OBJECT
  5
4A
102
{ACAD_REACTORS
330
47
102
}
330
47
100
AcDbProxyObject
 90
      499
 91
      503
 93
      105
310
903313A344000000000000104000
  0
ACAD_PROXY_OBJECT
  5
4B
102
{ACAD_REACTORS
330
47
102
}
330
47
100
AcDbProxyObject
 90
      499
 91
      503
 93
      105
310
903313A354000000000000144000
  0
ACAD_PROXY_OBJECT
  5
4C
102
{ACAD_REACTORS
330
47
102
}
330
47
100
AcDbProxyObject
 90
      499
 91
      503
 93
      105
310
903313A384000000000000204000
  0
ACAD_PROXY_OBJECT
  5
4D
102
{ACAD_REACTORS
330
47
102
}
330
47
100
AcDbProxyObject
 90
      499
 91
      503
 93
      113
310
904313A31304000000000000244000
  0
ACAD_PROXY_OBJECT
  5
4E
102
{ACAD_REACTORS
330
47
102
}
330
47
100
AcDbProxyObject
 90
      499
 91
      503
 93
      113
310
904313A31364000000000000304000
  0
ACAD_PROXY_OBJECT
  5
4F
102
{ACAD_REACTORS
330
47
102
}
330
47
100
AcDbProxyObject
 90
      499
 91
      503
 93
      113
310
904313A32304000000000000344000
  0
ACAD_PROXY_OBJECT
  5
50
102
{ACAD_REACTORS
330
47
102
}
330
47
100
AcDbProxyObject
 90
      499
 91
      503
 93
      113
310
904313A333040000000000003E4000
  0
ACAD_PROXY_OBJECT
  5
51
102
{ACAD_REACTORS
330
47
102
}
330
47
100
AcDbProxyObject
 90
      499
 91
      503
 93
      113
310
904313A34304000000000000444000
  0
ACAD_PROXY_OBJECT
  5
52
102
{ACAD_REACTORS
330
47
102
}
330
47
100
AcDbProxyObject
 90
      499
 91
      503
 93
      113
310
904313A35304000000000000494000
  0
ACAD_PROXY_OBJECT
  5
53
102
{ACAD_REACTORS
330
47
102
}
330
47
100
AcDbProxyObject
 90
      499
 91
      503
 93
      121
310
905313A3130304000000000000594000
  0
ACAD_PROXY_OBJECT
  5
54
102
{ACAD_REACTORS
330
47
102
}
330
47
100
AcDbProxyObject
 90
      499
 91
      503
 93
      105
310
903323A310000000000000010100
  0
ACAD_PROXY_OBJECT
  5
55
102
{ACAD_REACTORS
330
47
102
}
330
47
100
AcDbProxyObject
 90
      499
 91
      503
 93
      105
310
903343A310000000000000410100
  0
ACAD_PROXY_OBJECT
  5
56
102
{ACAD_REACTORS
330
47
102
}
330
47
100
AcDbProxyObject
 90
      499
 91
      503
 93
      105
310
903383A310000000000000810100
  0
ACAD_PROXY_OBJECT
  5
57
102
{ACAD_REACTORS
330
47
102
}
330
47
100
AcDbProxyObject
 90
      499
 91
      503
 93
      113
310
90431303A310000000000000910100
  0
ACAD_PROXY_OBJECT
  5
58
102
{ACAD_REACTORS
330
47
102
}
330
47
100
AcDbProxyObject
 90
      499
 91
      503
 93
      121
310
9053130303A310000000000001650100
  0
ACAD_PROXY_OBJECT
  5
59
102
{ACAD_REACTORS
330
47
102
}
330
47
100
AcDbProxyObject
 90
      499
 91
      503
 93
      257
310
90E312F31323822203D2031272D3022000000000000200FC000000000000284000
  0
ACAD_PROXY_OBJECT
  5
5A
102
{ACAD_REACTORS
330
47
102
}
330
47
100
AcDbProxyObject
 90
      499
 91
      503
 93
      249
310
90D312F363422203D2031272D3022000000000000240FC000000000000284000
  0
ACAD_PROXY_OBJECT
  5
5B
102
{ACAD_REACTORS
330
47
102
}
330
47
100
AcDbProxyObject
 90
      499
 91
      503
 93
      249
310
90D312F333222203D2031272D3022000000000000280FC000000000000284000
  0
ACAD_PROXY_OBJECT
  5
5C
102
{ACAD_REACTORS
330
47
102
}
330
47
100
AcDbProxyObject
 90
      499
 91
      503
 93
      249
310
90D312F313622203D2031272D30220000000000002C0FC000000000000284000
  0
ACAD_PROXY_OBJECT
  5
5D
102
{ACAD_REACTORS
330
47
102
}
330
47
100
AcDbProxyObject
 90
      499
 91
      503
 93
      249
310
90D332F333222203D2031272D30220000000000002E0FC000000000000284000
  0
ACAD_PROXY_OBJECT
  5
5E
102
{ACAD_REACTORS
330
47
102
}
330
47
100
AcDbProxyObject
 90
      499
 91
      503
 93
      241
310
90C312F3822203D2031272D3022000000000000300FC000000000000284000
  0
ACAD_PROXY_OBJECT
  5
5F
102
{ACAD_REACTORS
330
47
102
}
330
47
100
AcDbProxyObject
 90
      499
 91
      503
 93
      249
310
90D332F313622203D2031272D3022000000000000320FC000000000000284000
  0
ACAD_PROXY_OBJECT
  5
60
102
{ACAD_REACTORS
330
47
102
}
330
47
100
AcDbProxyObject
 90
      499
 91
      503
 93
      241
310
90C312F3422203D2031272D3022000000000000340FC000000000000284000
  0
ACAD_PROXY_OBJECT
  5
61
102
{ACAD_REACTORS
330
47
102
}
330
47
100
AcDbProxyObject
 90
      499
 91
      503
 93
      241
310
90C332F3822203D2031272D3022000000000000360FC000000000000284000
  0
ACAD_PROXY_OBJECT
  5
62
102
{ACAD_REACTORS
330
47
102
}
330
47
100
AcDbProxyObject
 90
      499
 91
      503
 93
      241
310
90C312F3222203D2031272D3022000000000000380FC000000000000284000
  0
ACAD_PROXY_OBJECT
  5
63
102
{ACAD_REACTORS
330
47
102
}
330
47
100
AcDbProxyObject
 90
      499
 91
      503
 93
      241
310
90C332F3422203D2031272D30220000000000003A0FC000000000000284000
  0
ACAD_PROXY_OBJECT
  5
64
102
{ACAD_REACTORS
330
47
102
}
330
47
100
AcDbProxyObject
 90
      499
 91
      503
 93
      161
310
90A3122203D2031272D30224000000000000284000
  0
ACAD_PROXY_OBJECT
  5
65
102
{ACAD_REACTORS
330
47
102
}
330
47
100
AcDbProxyObject
 90
      499
 91
      503
 93
      257
310
90E312D312F3222203D2031272D30220000000000003E0FC000000000000284000
  0
ACAD_PROXY_OBJECT
  5
66
102
{ACAD_REACTORS
330
47
102
}
330
47
100
AcDbProxyObject
 90
      499
 91
      503
 93
      225
310
90A3322203D2031272D302200000000000002100000000000000284000
  0
ACAD_PROXY_OBJECT
  5
67
102
{ACAD_REACTORS
330
47
102
}
330
47
100
AcDbProxyObject
 90
      499
 91
      503
 93
      225
310
90A3622203D2031272D302200000000000006100000000000000284000
  0
ACAD_PROXY_OBJECT
  5
68
102
{ACAD_REACTORS
330
47
102
}
330
47
100
AcDbProxyObject
 90
      499
 91
      503
 93
      249
310
90D31272D3022203D2031272D30220000000000000A100000000000000284000
  0
ACAD_PROXY_OBJECT
  5
2F
102
{ACAD_REACTORS
330
2A
102
}
330
2A
100
AcDbProxyObject
 90
      499
 91
      501
 93
      436
310
42CC9915DA5C99599C985B595049028333333333333E33F0000000000000F90107901411070040501600405405064090741402480A0340
1001
ACAD
1000
AcDbSavedByObjectVersion
1070
     0
  0
ACAD_PROXY_OBJECT
  5
32
102
{ACAD_REACTORS
330
2A
102
}
330
2A
100
AcDbProxyObject
 90
      499
 91
      501
 93
      388
310
4150985CDA58D07406404333333333333E33F0000000000000F90107A41107004050150841D405064090741402480A0350
1001
ACAD
1000
AcDbSavedByObjectVersion
1070
     0
  0
ACAD_PROXY_OBJECT
  5
36
102
{ACAD_REACTORS
330
2A
102
}
330
2A
100
AcDbProxyObject
 90
      499
 91
      501
 93
      428
310
42109C9A59DA1D195B90C409028333333333333E33F0000000000000F9010790141107004050150841D405064090741402480A029950
1001
ACAD
1000
AcDbSavedByObjectVersion
1070
     0
  0
ACAD_PROXY_OBJECT
  5
3A
102
{ACAD_REACTORS
330
2A
102
}
330
2A
100
AcDbProxyObject
 90
      499
 91
      501
 93
      452
310
42D0DBDB1BDC90DA185B99D95104090240C333333333333E33F0000000000000F90108901411070040501508421405064090741402480A0350
1001
ACAD
1000
AcDbSavedByObjectVersion
1070
     0
  0
ACAD_PROXY_OBJECT
  5
34
102
{ACAD_REACTORS
330
2A
102
}
330
2A
100
AcDbProxyObject
 90
      499
 91
      501
 93
      500
310
4290DBDB98D95C1D1D585B10940D028333333333333E33F0000000000000F90107902409070040501000000000018199010841D405064090740C02480A0340
1001
ACAD
1000
AcDbSavedByObjectVersion
1070
     0
  0
ACAD_PROXY_OBJECT
  5
35
102
{ACAD_REACTORS
330
2A
102
}
330
2A
100
AcDbProxyObject
 90
      499
 91
      501
 93
      412
310
40D11A5B50B409028333333333333E33F0000000000000F9010790141107004050150841D405064090741402480A02677FFFFFD0
1001
ACAD
1000
AcDbSavedByObjectVersion
1070
     0
  0
ACAD_PROXY_OBJECT
  5
3D
102
{ACAD_REACTORS
330
2A
102
}
330
2A
100
AcDbProxyObject
 90
      499
 91
      501
 93
      452
310
43115919D950DBDB1BDC93D999916409028333333333333E33F0000000000000F9010790141107004050150841D405064090741402480A0350
1001
ACAD
1000
AcDbSavedByObjectVersion
1070
     0
  0
ACAD_PROXY_OBJECT
  5
39
102
{ACAD_REACTORS
330
2A
102
}
330
2A
100
AcDbProxyObject
 90
      499
 91
      501
 93
      444
310
42D19858D95C185D1D195C9B90F409028333333333333E33F0000000000000F9010790141107004050150841D405064090741402480A0350
1001
ACAD
1000
AcDbSavedByObjectVersion
1070
     0
  0
ACAD_PROXY_OBJECT
  5
2B
102
{ACAD_REACTORS
330
2A
102
}
330
2A
100
AcDbProxyObject
 90
      499
 91
      501
 93
      380
310
41119B185D240901404333333333333E33F0000000000000F9010740A907004050150841D405064090741402480A1B50
1001
ACAD
1000
AcDbSavedByObjectVersion
1070
     0
  0
ACAD_PROXY_OBJECT
  5
2C
102
{ACAD_REACTORS
330
2A
102
}
330
2A
100
AcDbProxyObject
 90
      499
 91
      501
 93
      468
310
43519B185D15DA5D1A115919D95CD0140901404333333333333E33F0000000000000F90107409019070040501600405405064090741402480A1B50
1001
ACAD
1000
AcDbSavedByObjectVersion
1070
     0
  0
ACAD_PROXY_OBJECT
  5
2D
102
{ACAD_REACTORS
330
2A
102
}
330
2A
100
AcDbProxyObject
 90
      499
 91
      501
 93
      404
310
41D1DBDD5C985D5910240902404333333333333E33F0000000000000F9010740A9070040501641D405064090741402480A1B50
1001
ACAD
1000
AcDbSavedByObjectVersion
1070
     0
  0
ACAD_PROXY_OBJECT
  5
2E
102
{ACAD_REACTORS
330
2A
102
}
330
2A
100
AcDbProxyObject
 90
      499
 91
      501
 93
      492
310
4411DBDD5C985D5915DA5D1A115919D95CD0340902404333333333333E33F0000000000000F90107409019070040501600405405064090741402480A1B50
1001
ACAD
1000
AcDbSavedByObjectVersion
1070
     0
  0
ACAD_PROXY_OBJECT
  5
31
102
{ACAD_REACTORS
330
2A
102
}
330
2A
100
AcDbProxyObject
 90
      499
 91
      501
 93
      476
310
41921A5919195B90640502408333333333333E33F0000000000000F901079024090700405020000000000001110200405405064090740C02480A0340
1001
ACAD
1000
AcDbSavedByObjectVersion
1070
     0
  0
ACAD_PROXY_OBJECT
  5
3B
102
{ACAD_REACTORS
330
2A
102
}
330
2A
100
AcDbProxyObject
 90
      499
 91
      501
 93
      428
310
42529A5D1D195C93D999914409028333333333333E33F0000000000000F9010790141107004050150A41D405064090741402480A0350
1001
ACAD
1000
AcDbSavedByObjectVersion
1070
     0
  0
ACAD_PROXY_OBJECT
  5
38
102
{ACAD_REACTORS
330
2A
102
}
330
2A
100
AcDbProxyObject
 90
      499
 91
      501
 93
      444
310
42D31A5B995C185D1D195C9B90E409028333333333333E33F0000000000000F9010790141107004050750841D405064090741402483A0350
1001
ACAD
1000
AcDbSavedByObjectVersion
1070
     0
  0
ACAD_PROXY_OBJECT
  5
3C
102
{ACAD_REACTORS
330
2A
102
}
330
2A
100
AcDbProxyObject
 90
      499
 91
      501
 93
      444
310
42D3DD995C9A185B99D3D999915409028333333333333E33F0000000000000F9010790141107004050150941D405064090741402480A0350
1001
ACAD
1000
AcDbSavedByObjectVersion
1070
     0
  0
ACAD_PROXY_OBJECT
  5
33
102
{ACAD_REACTORS
330
2A
102
}
330
2A
100
AcDbProxyObject
 90
      499
 91
      501
 93
      428
310
425499585B1A5CDD1A58D08409038333333333333E33F0000000000000F9010740A907004050150800405405064090740C02480A1B40
1001
ACAD
1000
AcDbSavedByObjectVersion
1070
     0
  0
ACAD_PROXY_OBJECT
  5
42
102
{ACAD_REACTORS
330
2A
102
}
330
2A
100
AcDbProxyObject
 90
      499
 91
      501
 93
      420
310
4194DA1859195911B40902404333333333333E33F0000000000000F9010740A41107004050150800405405064090840C02480A0B40
1001
ACAD
1000
AcDbSavedByObjectVersion
1070
     0
  0
ACAD_PROXY_OBJECT
  5
41
102
{ACAD_REACTORS
330
2A
102
}
330
2A
100
AcDbProxyObject
 90
      499
 91
      501
 93
      516
310
4454DA18591959081DDA5D1A08195919D95CD1A40902404333333333333E33F0000000000000F901074090142907004050250800405405064090740C02480A0B40
1001
ACAD
1000
AcDbSavedByObjectVersion
1070
     0
  0
ACAD_PROXY_OBJECT
  5
3E
102
{ACAD_REACTORS
330
2A
102
}
330
2A
100
AcDbProxyObject
 90
      499
 91
      501
 93
      532
310
4394DA1859195CC81BD98811DC985E5174090240C333333333333E33F0000000000000F901079024090741D01000000000000111010841D405064090740C02480A0340
1001
ACAD
1000
AcDbSavedByObjectVersion
1070
     0
  0
ACAD_PROXY_OBJECT
  5
3F
102
{ACAD_REACTORS
330
2A
102
}
330
2A
100
AcDbProxyObject
 90
      499
 91
      501
 93
      476
310
41D4DAD95D18DA1E51840502408333333333333E33F0000000000000F901079024090741D01000000000000111010B41D405064090741802480A0340
1001
ACAD
1000
AcDbSavedByObjectVersion
1070
     0
  0
ACAD_PROXY_OBJECT
  5
37
102
{ACAD_REACTORS
330
2A
102
}
330
2A
100
AcDbProxyObject
 90
      499
 91
      501
 93
      412
310
41D51A1A58DAD95B90D409028333333333333E33F0000000000000F9010790141107004050150C41D405064090741402480A0350
1001
ACAD
1000
AcDbSavedByObjectVersion
1070
     0
  0
ACAD_PROXY_OBJECT
  5
30
102
{ACAD_REACTORS
330
2A
102
}
330
2A
100
AcDbProxyObject
 90
      499
 91
      501
 93
      420
310
4255DA5C99599C985B595059028333333333333E33F0000000000000F90107901411070040501600405405064090740C02480A0340
1001
ACAD
1000
AcDbSavedByObjectVersion
1070
     0
  0
ACAD_PROXY_OBJECT
  5
40
102
{ACAD_REACTORS
330
2A
102
}
330
2A
100
AcDbProxyObject
 90
      499
 91
      501
 93
      404
310
41560B54985E51940902404000000000000E03F0000000000000F9010740501907004050150841D405064090740C02480A1B40
1001
ACAD
1000
AcDbSavedByObjectVersion
1070
     0
  0
XRECORD
  5
23A
102
{ACAD_REACTORS
330
230
102
}
330
230
100
AcDbXrecord
340
0
  0
XRECORD
  5
239
102
{ACAD_REACTORS
330
230
102
}
330
230
100
AcDbXrecord
 90
        0
  0
XRECORD
  5
250
102
{ACAD_REACTORS
330
230
102
}
330
230
100
AcDbXrecord
1000
DSTYLE
1002
{
1070
   171
 70
     2
1070
   143
 40
25.4
1070
   274
 70
     2
1070
    41
 40
0.18
1070
   141
 40
0.09
1070
   271
 70
     4
1070
    43
 40
0.38
1070
   278
 70
    46
1070
    44
 40
0.18
1070
    42
 40
0.0625
1070
   147
 40
0.09
1070
    77
 70
     0
1070
   272
 70
     4
1070
    73
 70
     1
1070
   172
 70
     0
1070
    74
 70
     1
1070
   283
 70
     1
1070
   340
340
11
1070
   140
 40
0.18
1070
   284
 70
     0
1070
    78
 70
     0
1002
}
  0
XRECORD
  5
23B
102
{ACAD_REACTORS
330
230
102
}
330
230
100
AcDbXrecord
  1
{7f76d9fd-6f27-4333-b4fb-6d70da67332c}
  0
XRECORD
  5
233
102
{ACAD_REACTORS
330
230
102
}
330
230
100
AcDbXrecord
  1

  0
XRECORD
  5
238
102
{ACAD_REACTORS
330
230
102
}
330
230
100
AcDbXrecord
 90
        4
  0
XRECORD
  5
235
102
{ACAD_REACTORS
330
230
102
}
330
230
100
AcDbXrecord
340
1A
  0
XRECORD
  5
237
102
{ACAD_REACTORS
330
230
102
}
330
230
100
AcDbXrecord
 90
    10781
  0
XRECORD
  5
236
102
{ACAD_REACTORS
330
230
102
}
330
230
100
AcDbXrecord
340
19
  0
XRECORD
  5
23D
102
{ACAD_REACTORS
330
230
102
}
330
230
100
AcDbXrecord
 40
0.0
  0
XRECORD
  5
240
102
{ACAD_REACTORS
330
230
102
}
330
230
100
AcDbXrecord
340
0
  0
XRECORD
  5
246
102
{ACAD_REACTORS
330
230
102
}
330
230
100
AcDbXrecord
 10
0.0
 20
0.0
 30
0.0
  0
XRECORD
  5
242
102
{ACAD_REACTORS
330
230
102
}
330
230
100
AcDbXrecord
 10
0.0
 20
0.0
 30
0.0
  0
XRECORD
  5
245
102
{ACAD_REACTORS
330
230
102
}
330
230
100
AcDbXrecord
 10
0.0
 20
0.0
 30
0.0
  0
XRECORD
  5
243
102
{ACAD_REACTORS
330
230
102
}
330
230
100
AcDbXrecord
 10
0.0
 20
0.0
 30
0.0
  0
XRECORD
  5
244
102
{ACAD_REACTORS
330
230
102
}
330
230
100
AcDbXrecord
 10
0.0
 20
0.0
 30
0.0
  0
XRECORD
  5
241
102
{ACAD_REACTORS
330
230
102
}
330
230
100
AcDbXrecord
 10
0.0
 20
0.0
 30
0.0
  0
XRECORD
  5
23E
102
{ACAD_REACTORS
330
230
102
}
330
230
100
AcDbXrecord
340
0
  0
XRECORD
  5
23F
102
{ACAD_REACTORS
330
230
102
}
330
230
100
AcDbXrecord
 70
     0
  0
XRECORD
  5
234
102
{ACAD_REACTORS
330
230
102
}
330
230
100
AcDbXrecord
  1

  0
XRECORD
  5
231
102
{ACAD_REACTORS
330
230
102
}
330
230
100
AcDbXrecord
 90
        1
  0
XRECORD
  5
232
102
{ACAD_REACTORS
330
230
102
}
330
230
100
AcDbXrecord
 90
       70
  0
XRECORD
  5
249
102
{ACAD_REACTORS
330
230
102
}
330
230
100
AcDbXrecord
340
0
  0
XRECORD
  5
24F
102
{ACAD_REACTORS
330
230
102
}
330
230
100
AcDbXrecord
 10
0.0
 20
0.0
 30
0.0
  0
XRECORD
  5
24B
102
{ACAD_REACTORS
330
230
102
}
330
230
100
AcDbXrecord
 10
0.0
 20
0.0
 30
0.0
  0
XRECORD
  5
24E
102
{ACAD_REACTORS
330
230
102
}
330
230
100
AcDbXrecord
 10
0.0
 20
0.0
 30
0.0
  0
XRECORD
  5
24C
102
{ACAD_REACTORS
330
230
102
}
330
230
100
AcDbXrecord
 10
0.0
 20
0.0
 30
0.0
  0
XRECORD
  5
24D
102
{ACAD_REACTORS
330
230
102
}
330
230
100
AcDbXrecord
 10
0.0
 20
0.0
 30
0.0
  0
XRECORD
  5
24A
102
{ACAD_REACTORS
330
230
102
}
330
230
100
AcDbXrecord
 10
0.0
 20
0.0
 30
0.0
  0
XRECORD
  5
247
102
{ACAD_REACTORS
330
230
102
}
330
230
100
AcDbXrecord
340
0
  0
XRECORD
  5
248
102
{ACAD_REACTORS
330
230
102
}
330
230
100
AcDbXrecord
 70
     0
  0
XRECORD
  5
23C
102
{ACAD_REACTORS
330
230
102
}
330
230
100
AcDbXrecord
  1
{FAEB1C32-E019-11D5-929B-00C0DF256EC4}
  0
DICTIONARYVAR
  5
25A
102
{ACAD_REACTORS
330
251
102
}
330
251
100
DictionaryVariables
280
     0
  1
1:1
  0
DICTIONARYVAR
  5
253
102
{ACAD_REACTORS
330
251
102
}
330
251
100
DictionaryVariables
280
     0
  1
Standard
  0
DICTIONARYVAR
  5
252
102
{ACAD_REACTORS
330
251
102
}
330
251
100
DictionaryVariables
280
     0
  1
Standard
  0
DICTIONARYVAR
  5
256
102
{ACAD_REACTORS
330
251
102
}
330
251
100
DictionaryVariables
280
     0
  1
2
  0
DICTIONARYVAR
  5
257
102
{ACAD_REACTORS
330
251
102
}
330
251
100
DictionaryVariables
280
     0
  1
1
  0
DICTIONARYVAR
  5
25B
102
{ACAD_REACTORS
330
251
102
}
330
251
100
DictionaryVariables
280
     0
  1
1
  0
DICTIONARY
  5
25E
330
45
100
AcDbDictionary
280
     1
  3
ACAD_XREC_ROUNDTRIP
360
25F
  0
DICTIONARY
  5
25C
330
44
100
AcDbDictionary
280
     1
  3
ACAD_XREC_ROUNDTRIP
360
25D
  0
DICTIONARY
  5
260
330
46
100
AcDbDictionary
280
     1
  3
ACAD_XREC_ROUNDTRIP
360
261
  0
XRECORD
  5
25F
102
{ACAD_REACTORS
330
25E
102
}
330
25E
100
AcDbXrecord
102
MATERIAL
148
0.0
149
0.0
149
0.0
 93
        0
 94
      127
282
     0
 72
     1
 77
     1
171
     1
175
     1
179
     1
273
     0
  0
XRECORD
  5
25D
102
{ACAD_REACTORS
330
25C
102
}
330
25C
100
AcDbXrecord
102
MATERIAL
148
0.0
149
0.0
149
0.0
 93
        0
 94
      127
282
     0
 72
     1
 77
     1
171
     1
175
     1
179
     1
273
     0
  0
XRECORD
  5
261
102
{ACAD_REACTORS
330
260
102
}
330
260
100
AcDbXrecord
102
MATERIAL
148
0.0
149
0.0
149
0.0
 93
        0
 94
      127
282
     0
 72
     1
 77
     1
171
     1
175
     1
179
     1
273
     0
  0
ENDSEC
  0
EOF
